<?xml version="1.0" encoding="utf-8"?>
<!-- Generator: Adobe Illustrator 23.0.3, SVG Export Plug-In . SVG Version: 6.00 Build 0)  -->
<svg version="1.1" id="Layer_1" xmlns="http://www.w3.org/2000/svg" xmlns:xlink="http://www.w3.org/1999/xlink" x="0px" y="0px"
	 viewBox="0 0 500 500" style="enable-background:new 0 0 500 500;" xml:space="preserve">
<style type="text/css">
	.st0{fill:#EFEDF3;}
	.st1{fill:#FCFBFB;}
	.st2{fill:#16191B;}
	.st3{fill:#DDDDE5;}
	.st4{fill:#0F1012;}
	.st5{fill:#242829;}
	.st6{fill:#020102;}
	.st7{fill:#AB8B95;}
	.st8{fill:#C4C4C9;}
	.st9{fill:#595959;}
	.st10{fill:#FCE3E0;}
</style>
<g>
	<path class="st0" d="M375.86,384.29c0.57-0.22,1.13-0.43,1.7-0.65c5.08,0.26,12.49-4.04,12.39,6.34c-2.67,1.67-5.35,3.33-8.7,1.9
		c-2.84-2.07-5.05-0.01-7.17,1.37c-0.33,0.22,0.41,2.53,1.02,3.69c2.24,4.29,5.1,8.33,6.81,12.81c1.12,2.92-1.03,7.53,3.09,8.86
		c4.12,1.32,5.13-3.09,7-5.61c0.66,0.27,1.32,0.54,1.97,0.8c0.62,1.36,1.24,2.72,1.86,4.09c0.28,0.8,0.55,1.61,0.83,2.41
		c0.05,0.83,0.11,1.67,0.16,2.5c-1.83,0.88-1.7,2.15-0.7,3.58c-0.12,1.16-0.24,2.32-0.37,3.49c-0.72,5.38-2.81,8.12-9.19,7.29
		c-5.77-0.75-11.24,7.58-17.74,1.15c-0.14-0.14-2.57,1.32-2.48,1.76c1.29,6.63-2.68,9.84-11.24,13.06
		c14.66,0.51,29.08-12.3,35.95,6.99c0.1,0.63,0.2,1.25,0.31,1.88c-0.13-0.13-0.28-0.19-0.47-0.16c-4.06,0.22-5.32,2.45-4.45,6.2
		c0.13,1.49,0.25,2.99,0.38,4.48c-0.23,0.56-0.46,1.12-0.68,1.68c-2.78,0.47-0.3,2.24-0.81,3.27c-0.5,0.7-1.01,1.41-1.51,2.11
		c-1.17,0.61-2.34,1.23-3.51,1.84c-0.59-0.02-1.18-0.05-1.77-0.07c-2.91-2.4-4.59-0.41-6.23,1.74c-0.58,0.04-1.17,0.08-1.75,0.12
		c-0.1-2.37,0.03-4.78-0.36-7.09c-0.32-1.89-1.26-3.67-1.93-5.5c1.8,0.53,3.63,0.99,5.41,1.59c4.3,1.46,7.81,0.75,10.8-4
		c-6.99,2.07-8.66-5.9-13.78-6.13c-5.48-0.25-5.83,7.14-11.67,8.32c-7.05,1.42-3.57,8.74-4.46,13.56c-0.33,0.62-0.67,1.23-1,1.85
		c-3.21,5.74-12.1,6.85-12.26,15.08c-1.77,0-3.55,0-5.32,0c0.61-18.93,1.21-37.85-0.82-56.74c-0.31-2.9-0.42-4.05-3.81-2.38
		c-5.03,2.49-1.93,7.64-4.28,10.89c-1.04,1.44-1.83,3.06-2.73,4.6c-0.69-0.41-2.02-1.12-1.98-1.19c5.69-12.35-1.99-9.28-8.57-7.48
		c-0.9-5.89-1.79-11.77-2.69-17.66c0.36-4.77-0.73-11.38,3.45-13.21c2.74-1.2,2.24,5.46,3.14,8.63c0.06,0.22,0.43,0.35,1.82,1.42
		c4.49-18.65,9.34-9.23,14.76,3.97c0-9.95-2.11-16.81,0.39-20.78c8.32-13.26,17.09-14.58,24.35,1.57
		c10.39-4.38,10.76-17.1,16.8-26.01C375.82,385.77,375.84,385.03,375.86,384.29z M385.49,422.78c-1.62-0.57-3.23-1.55-4.88-1.63
		c-5.19-0.28-10.41-0.22-15.61-0.29c-1.24-0.02-2.48-0.01-3.72-0.02c0.05,0.68-0.16,1.71,0.2,1.98c1.23,0.92,3.12,2.57,3.93,2.18
		C371.38,422.2,377.13,424.29,385.49,422.78z M320.56,443.04c-0.22-0.09-0.5-0.3-0.66-0.23c-0.16,0.07-0.21,0.41-0.3,0.63
		c0.22,0.1,0.49,0.31,0.65,0.25C320.41,443.63,320.46,443.29,320.56,443.04z"/>
	<path class="st1" d="M166.67,500.89c-3.25,0-6.5,0-9.75,0c-0.66-2.85-1.17-5.75-2.18-8.47c-0.11-0.3-3.09,4.15-4.73-0.09
		c-1.25-3.24,0.17-5.49,2.3-7.87c1.06-1.18,1.98-4.25,1.39-4.81c-2.13-2.02-2.91,1.16-4.43,1.86c-7.81,3.62,1.59,11.49-3.9,15.65
		c-1.17,0.02-2.33,0.04-3.5,0.06c-2.15-5.68-8.86-2.1-11.94-5.89c-0.17-0.95-0.34-1.9-0.51-2.84c0.44-1.64,0.88-3.29,1.33-4.97
		c2.39,2.62,4.58,0.08,7.04-0.29c-2.11-0.51-4.44-1.52-3.49-3.5c2.85-5.95,8.65-7.77,14.64-8.96c0.59-0.02,1.18-0.03,1.77-0.05
		c0.58-0.58,1.16-1.16,1.74-1.74c0.45-0.98,0.91-1.97,1.36-2.95c-0.74,0.4-1.48,0.79-2.22,1.19c-7.1,0.31-14.19,0.62-21.29,0.93
		c-0.57-0.15-1.14-0.3-1.71-0.45c-1.72-1.74-3.57-3.15-6.24-2.31c-1.5-0.52-3-1.05-4.51-1.57c-0.26-0.34-0.51-0.69-0.77-1.03
		c-0.64-1.76-1.28-3.53-1.91-5.29c0.03-1.78,0.06-3.56,0.1-5.34c1.03-4.15,2.05-8.29,3.08-12.44c0.45,0,0.89,0.01,1.34,0.01
		c4.74,2.1,6.6-1.59,8.89-4.41c7.38-3.38-2.04-4.56-0.93-7.11l0.01-0.01c0.94-0.24,2.92,0.58,1.78-1.76
		c0.01-0.88,0.03-1.76,0.04-2.63c1.76-0.89,3.51-1.78,5.27-2.67l0,0c-0.14,1.92,0.75,2.8,2.67,2.65c1.79,2.65,3.58,5.31,5.36,7.96
		c-3.18,0.92-3.98,3.22-3.59,6.21c-0.58,0.02-1.15,0.03-1.73,0.05c-0.6,0.87-1.21,1.75-1.81,2.62c-0.89,0.89-1.77,1.77-2.66,2.66
		c-3.32,1.47-7.05,2.41-9.81,4.59c-1.81,1.43-2.27,4.63-3.15,7.1c-0.08,0.22,1.23,0.92,1.89,1.4c0.96-7.83,10.68-2.61,12.86-8.63
		c0.88-0.31,1.75-0.62,2.63-0.92c3.3,0.33,6.17,0.15,5.28-4.46c0-0.29,0.02-0.57,0.04-0.86c1.48,0,2.97,0.01,4.45,0.01
		c0.01,0.59,0.01,1.18,0.02,1.77c-2.74,5.2,3.39,7.02,4.26,10.87c0.02,0.07,2.31,0.01,2.45-0.38c1.42-3.9-0.61-6.64-3.41-9.02
		c-0.22-0.19-0.44-0.38-0.66-0.57c0.88-1.19,1.76-2.37,2.64-3.56c1.17-0.61,2.34-1.21,3.5-1.82c0.02-1.16,0.04-2.33,0.06-3.49
		c4.38-1.09,2.06-4.64,2.61-7.13c0.01-1.76,0.02-3.53,0.03-5.29c8.87,5.27,22.02,7,17.59,24.51c1.79-2.85,2.17-4.08,3-4.66
		c2.31-1.61,6.77-4.42,6.94-4.2c5.16,6.96-6.57,7.35-5.6,14.25c0.59,4.19-2.59,0.41-4.6-3.06c-0.89,6.25-1.51,10.68-2.14,15.1
		C161.28,474.8,167.47,488.54,166.67,500.89z M150.3,461.06c0.93-0.69,1.88-1.4,2.82-2.1c-3.03-1.97-5.85-4.68-9.18-5.65
		c-2.12-0.61-7.37,0.22-6.76,3.04C138.75,463.65,145.91,458.11,150.3,461.06z M143.25,465.64c-0.09-0.22-0.13-0.56-0.29-0.63
		c-0.16-0.07-0.43,0.14-0.66,0.22c0.09,0.22,0.12,0.56,0.28,0.64C142.73,465.95,143.01,465.75,143.25,465.64z"/>
	<path class="st2" d="M330.67,500.89c-20.39,0-40.78,0-61.17,0c0.85-0.72,1.58-1.7,2.56-2.12c5.97-2.58,11.99-5.04,18-7.54
		c6.68,0.28,13.35,0.65,20.04,0.78c1.43,0.03,2.87-0.81,4.3-1.25c-0.48-0.49-0.95-0.97-1.43-1.46c-1.19-1.16-2.37-2.32-3.56-3.49
		c-0.75-0.41-1.5-0.83-2.24-1.24l-0.08-0.06c-0.9-0.89-1.8-1.77-2.71-2.66c-0.7-0.74-1.39-1.48-2.09-2.23
		c-1.22-1.43-2.44-2.86-3.66-4.29c-0.33-2.44-1.7-3.69-4.19-3.62c-0.31-0.12-0.54-0.04-0.69,0.25c-0.12-0.38-0.23-0.77-0.35-1.15
		c-0.88-1.59-1.75-3.19-2.63-4.78c0.52-1.7,1.13-4.07,3.32-2.88c1.7,0.92,4.08,2.5,2.62,5.55c2.52-0.5,3.62-1.73,2.47-3.8
		c-2.94-5.3-7.27-10.17-8.77-15.81c-1.58-5.99-6.88-13.52,2.19-18.67c3.15,3.56,6.31,7.12,9.46,10.68c0.91,1.16,1.82,2.32,2.74,3.48
		c2.64,2.97,5.27,5.95,7.91,8.92c2.27,2.29,4.54,4.59,6.82,6.88c0.73,0.56,1.47,1.12,2.2,1.68c9.08,5.41,10.29,13.45,8.61,23.14
		C329.45,490.26,330.5,495.65,330.67,500.89z"/>
	<path class="st1" d="M260.64,500.89c-7.39,0-14.78,0-22.16,0c-2.93-3.07-6.45-4.31-10.65-3.46c-0.56-0.11-1.12-0.23-1.68-0.34
		c-1.76-1.96-3.82-2.59-6.29-1.46c-0.84-0.19-1.69-0.38-2.53-0.57c-0.64-0.1-1.27-0.21-1.91-0.31c-2.95-0.03-5.91-0.07-8.86-0.1
		c-1.94-1.01-3.83-1.53-5.4,0.64c-0.86,0.1-1.72,0.2-2.57,0.3c-1.41-1.26-2.63-1.16-3.66,0.48c-0.56,0.1-1.12,0.2-1.68,0.31
		c-2.85-1.39-5.03-0.05-7.09,1.75c-1.23,0.23-2.47,0.47-3.7,0.7c0-1.42,0-2.84,0-4.25c4.22-6.57,12.53-9.38,15.59-17.01l0.25-0.27
		c0.42-0.4,0.84-0.8,1.25-1.2c0.32-0.28,0.63-0.56,0.95-0.84c7.02-0.85,10.04-6.29,13.2-11.55c2.03-0.91,4.06-1.83,6.08-2.74
		c5.32,1.46,6.28,5.26,6.42,10.28c0.12,4.38-5.44,8.21-1.07,12.81c0.01,2.07,0.03,4.13,0.04,6.2c0.17,2.21,0.73,3.93,3.54,2.78
		c0.59,0,1.18,0.01,1.77,0.01c1.88,0.76,3.71,1.63,5.64,2.25c5.97,1.93,7.92-6.04,13.36-5.5l0,0.04c0.43,0.99,0.87,1.98,1.3,2.97
		c0.92-0.62,1.83-1.23,2.75-1.85c1.55-1.42,3.11-2.83,4.66-4.25c0.47-0.71,0.93-1.43,1.4-2.14c-0.76-0.38-1.52-0.75-2.28-1.13
		c-2.54-1.63-5.15-2-7.86-0.43c0.03-2.95-8.02-2.76-3.08-7.36c1.92-1.78,2.58-3.72,1.31-5.16c-1.05-1.2-3.64-1.71-5.41-1.46
		c-3.17,0.44-7.87,3.38-9.03,2.26c-3.65-3.53-6.78-8.11-6.31-13.88c0.62-0.87,1.24-1.73,1.86-2.6c4.1-3.46,9.37-5.17,12.76-0.9
		c2.13,2.68,5.08,9.94-4.08,10.57c3.68-0.62,7.36-1.23,11.04-1.85c0.51,0.23,1.02,0.45,1.53,0.68c0.07,1.4,0.13,2.81,0.33,6.8
		c1.27-4.03,1.73-5.48,2.18-6.93c1-0.53,2-1.06,3-1.59c1.23-0.25,2.46-0.5,3.91-0.79c0.7,6.29,1.4,12.56,2.09,18.83
		C261.25,486.72,260.95,493.8,260.64,500.89z"/>
	<path class="st2" d="M115.26,452.13c-0.03,1.78-0.06,3.56-0.1,5.34c-5.04,1.83-0.3,3.5,0.09,5.24c-1.47,5.69-1.15,11.63-6,16.6
		c-6.78,6.96-16.18,11.65-19.72,21.57c-7.39,0-14.78,0-22.16,0c5.12-22.56,16.22-42.6,26.24-63.14c4.6-9.43,9.63-18.46,16.46-26.43
		c1.66-1.94,2.92-4.6,6.18-4.29c0,0,0,0,0,0c-0.1,2.07-0.2,4.14-0.3,6.21c-0.29,1.15-0.58,2.29-0.87,3.44
		c-2.07,1.99-4.49,3.73-6.14,6.03c-3.68,5.13-3.52,5.25-5.22,3.72c0.06-0.1,0.12-0.21,0.18-0.31c-0.06,0.1-0.12,0.21-0.18,0.31
		c-2.6,3.57,0.73,8.09-2.89,12.18c-3.52,3.96-5.74,9.08-5.59,15.69c0.12,5.38,8.76,2.09,5.46,7.27
		c-6.22,9.76-12.86,19.25-19.46,28.76c-0.97,1.39-3.14,2.15-1.09,4.21c1.79,1.8,3.32,0.64,4.59-0.6
		c8.07-7.88,11.94-18.61,18.46-27.41c4.1-5.53,3.29-14.2,11.12-17.08C114.63,450.34,114.95,451.24,115.26,452.13z"/>
	<path class="st2" d="M423.62,461.95c3.89,12.98,7.77,25.96,11.66,38.93c-6.5,0-13,0-19.5,0c-6.45-9.73-11.94-19.81-14.76-31.37
		c-1.1-4.51-2.42-10.31-8.94-11.15c1-3.85,2.01-7.69,3.01-11.54c8.81-4.97,10.85,5.2,17.07,7.25c-0.53-3.34-1.06-6.73-1.59-10.12
		c3.48,5.03,5.43,10.39,7.98,15.44C419.27,460.81,419.59,465.96,423.62,461.95z"/>
	<path class="st3" d="M319.52,460.38c-2.27-2.29-4.54-4.59-6.82-6.88c0.36-1.64,0.73-3.28,1.09-4.92c6.58-1.8,14.26-4.87,8.57,7.48
		c-0.04,0.08,1.29,0.78,1.98,1.19c0.9-1.54,1.69-3.16,2.73-4.6c2.35-3.25-0.75-8.4,4.28-10.89c3.39-1.68,3.5-0.52,3.81,2.38
		c2.03,18.9,1.43,37.82,0.82,56.74c-1.77,0-3.55,0-5.32,0c-0.18-5.24-1.23-10.63-0.35-15.68c1.68-9.68,0.48-17.72-8.61-23.14
		C320.99,461.51,320.25,460.95,319.52,460.38z M323.31,459.32l-0.17-0.36l-0.17,0.36L323.31,459.32z"/>
	<path class="st4" d="M89.54,500.89c3.54-9.92,12.94-14.61,19.72-21.57c4.84-4.97,4.52-10.9,6-16.6c0.56,0.32,1.13,0.64,1.69,0.97
		c0.3,0.04,0.6,0.08,0.9,0.12c1.5,0.52,3,1.05,4.51,1.57c0.88,0.62,1.76,1.23,2.64,1.85c-0.94,3.74-1.05,7.98-2.97,11.12
		c-4.77,7.79-10.37,15.07-15.64,22.55C100.77,500.89,95.15,500.89,89.54,500.89z"/>
	<path class="st5" d="M106.38,500.89c5.27-7.48,10.87-14.76,15.64-22.55c1.92-3.13,2.04-7.38,2.97-11.12c1.2,0.15,2.4,0.31,3.6,0.46
		c0.57,0.15,1.14,0.3,1.71,0.45c4.32,6.98-3.32,13.44-0.89,20.34c0.17,0.95,0.34,1.9,0.51,2.84c1.91,6.17,6.31,7.27,11.94,5.89
		c1.17-0.02,2.33-0.04,3.5-0.06c2.14,0.47,4.27,0.95,4.46,3.74C135.34,500.89,120.86,500.89,106.38,500.89z"/>
	<path class="st6" d="M392.09,458.36c6.52,0.84,7.84,6.65,8.94,11.15c2.82,11.56,8.31,21.64,14.76,31.37c-5.02,0-10.05,0-15.07,0
		c-11.02-8.47-3.12-23.04-10.54-32.66c0.26-0.64,0.52-1.27,0.78-1.91c-0.02-1.49-0.03-2.98-0.05-4.46c0.18-0.03,0.34,0.03,0.47,0.16
		c0.16-0.63,0.33-1.26,0.49-1.9C391.93,459.53,392.01,458.94,392.09,458.36z"/>
	<path class="st3" d="M260.64,500.89c0.31-7.08,0.61-14.17,0.92-21.25c0.58,0.29,1.16,0.57,1.74,0.86
		c4.65,3.71-10.12,21.09,9.11,13.8c8.25-3.13,3.77-11.81,2.47-18.29c-0.5-0.75-1-1.49-1.5-2.24c-0.42,0.43-0.83,0.87-1.25,1.3
		c-0.86,0-1.73,0.01-2.59,0.01c0.64-5.25,5.41-7.59,8.07-11.41c3.81,2.64,10.84-1.16,12.31,6.17c-3.2,3.27-10.03,1.24-10.82,8.47
		c-0.96,8.78-2.42,16.81,10.97,12.93c-6.01,2.5-12.03,4.95-18,7.54c-0.98,0.42-1.71,1.4-2.56,2.12
		C266.55,500.89,263.59,500.89,260.64,500.89z"/>
	<path class="st3" d="M341.31,500.89c0.15-8.22,9.04-9.34,12.26-15.08c5.66,2.66,11.32,5.32,16.98,7.98
		c-0.29,2.36-0.58,4.73-0.87,7.09C360.22,500.89,350.77,500.89,341.31,500.89z"/>
	<path class="st4" d="M390.17,468.22c7.42,9.63-0.48,24.2,10.54,32.66c-4.14,0-8.27,0-12.41,0c-4.05-6.72-1.78-14.25-2.75-21.36
		c0,0-0.01,0.02-0.01,0.02c1.18-0.16,2.34-0.33,0.86-1.77c-0.08-1.19-0.16-2.37-0.24-3.56c0.23-0.56,0.46-1.12,0.68-1.68
		C387.94,471.09,389.06,469.66,390.17,468.22z"/>
	<path class="st2" d="M385.55,479.52c0.97,7.11-1.3,14.65,2.75,21.36c-6.21,0-12.41,0-18.62,0c0.29-2.36,0.58-4.73,0.87-7.09
		c3.74-3.43,7.49-6.86,11.23-10.29c0.75-0.89,1.51-1.78,2.26-2.67C384.55,480.39,385.05,479.96,385.55,479.52z"/>
	<path class="st5" d="M217.32,495.06c0.84,0.19,1.69,0.38,2.53,0.57c2.1,0.49,4.2,0.97,6.29,1.46c0.56,0.11,1.12,0.23,1.68,0.34
		c1.57,2.06,5.54-0.2,6.22,3.46c-15.96,0-31.91,0-47.87,0c-0.01-0.62-0.02-1.25-0.03-1.87c2.37-0.88,4.74-1.76,7.1-2.64
		c0.56-0.1,1.12-0.2,1.68-0.31c1.22-0.16,2.44-0.32,3.66-0.48c0.86-0.1,1.72-0.2,2.57-0.3c1.8-0.21,3.6-0.42,5.4-0.64
		c2.95,0.03,5.91,0.07,8.86,0.1C216.05,494.86,216.69,494.96,217.32,495.06z"/>
	<path class="st5" d="M166.67,500.89c0.81-12.35-5.39-26.09,7.2-36.09c2.04-0.96,4.07-1.93,6.11-2.89c1.08,7.27-6.78,7.4-8.66,10.59
		c-3.51,5.96-6.15,14.05-2.87,22.49c0-3.91-0.07-7.26,0.05-10.61c0.03-0.91,0.62-1.81,0.95-2.71c0.66,0.46,1.94,1.24,1.9,1.32
		c-2.42,4.49,3.47,9.7-1.58,13.8c1.9,0.56,3.43,1.01,4.96,1.46c-0.62,0.87-1.23,1.75-1.85,2.62
		C170.8,500.89,168.74,500.89,166.67,500.89z"/>
	<path class="st3" d="M149.82,500.89c-0.2-2.79-2.32-3.27-4.46-3.74c5.49-4.16-3.91-12.03,3.9-15.65c1.52-0.7,2.31-3.88,4.43-1.86
		c0.59,0.56-0.34,3.63-1.39,4.81c-2.12,2.38-3.55,4.64-2.3,7.87c1.65,4.24,4.62-0.2,4.73,0.09c1.01,2.72,1.52,5.62,2.18,8.47
		C154.55,500.89,152.19,500.89,149.82,500.89z"/>
	<path class="st7" d="M172.87,500.89c0.62-0.87,1.23-1.75,1.85-2.62c6.13-5.92,12.26-11.83,18.4-17.75
		c1.64-0.99,3.28-1.97,4.92-2.96c-3.06,7.63-11.37,10.45-15.59,17.02c-1.12,2.11-2.25,4.21-3.37,6.31
		C177.01,500.89,174.94,500.89,172.87,500.89z"/>
	<path class="st8" d="M234.04,500.89c-0.68-3.66-4.65-1.4-6.22-3.46c4.2-0.85,7.72,0.4,10.65,3.46
		C237,500.89,235.52,500.89,234.04,500.89z"/>
	<path class="st8" d="M179.08,500.89c1.12-2.1,2.25-4.21,3.37-6.31c0,1.42,0,2.84,0,4.25c-0.53,0.69-1.07,1.37-1.6,2.06
		C180.26,500.89,179.67,500.89,179.08,500.89z"/>
	<path class="st7" d="M180.85,500.89c0.53-0.69,1.07-1.38,1.6-2.06c1.23-0.23,2.47-0.47,3.7-0.7c0,0.3-0.01,0.6-0.01,0.89
		c0.01,0.62,0.02,1.25,0.03,1.87C184.4,500.89,182.62,500.89,180.85,500.89z"/>
	<path class="st6" d="M396.07,255.35c0.16,0.74,0.31,1.48,0.47,2.23c-0.12,0.85-0.24,1.7-0.35,2.55
		c-8.36-6.06-10.51-0.13-11.79,6.39c-3.71,18.82-15.23,36.12-12.19,57.04c-2.57-5.76-5.11-11.54-7.72-17.28
		c-0.64-1.4-1.52-2.69-2.3-4.03c-1.57,0.95-3.5,1.59-4.66,2.9c-7.72,8.75-14.92,18.06-28.18,18.55c-3.83,0.14-5.47-0.88-5.01-4.73
		c2.28-2.55,4.56-5.09,6.83-7.64c0.77-0.93,1.54-1.86,2.32-2.79c0.23-0.4,0.45-0.8,0.68-1.2c-0.57-0.13-1.15-0.27-1.72-0.4
		c-0.27-0.23-0.53-0.46-0.8-0.69c-2.65-2.87,0.7-3.74,1.76-5.41c0.9-1.41,1.65-2.91,2.47-4.38c-1.31-0.44-2.62-0.89-5.72-1.93
		c3.45-2.85,6.57-4.88,9.01-7.54c6.17-6.73,8.18-12.41,5.78-14.88c-1.2-0.9-2.4-1.81-3.6-2.71c-0.65-0.51-1.3-1.03-1.96-1.54
		l0.02,0.01c-0.8-0.66-1.6-1.33-2.4-1.99l-0.07-0.06c-0.92-0.83-1.84-1.66-2.76-2.5l0.01,0c-1.31-3.44-3.61-5.87-7.13-7.07
		l0.01,0.02c-0.83-0.93-1.66-1.86-2.48-2.78c-0.57-0.39-1.13-0.78-1.7-1.17c-0.1-0.41-0.19-0.82-0.29-1.24
		c-0.52-0.67-1.05-1.35-1.57-2.02c-0.36-0.5-0.73-1.01-1.09-1.51c-0.5-0.68-1-1.35-1.49-2.03c-0.3-0.03-0.42-0.19-0.36-0.49
		c-0.01-2.28-0.64-4.15-3.12-4.84c-0.44-0.74-0.88-1.48-1.32-2.23c-0.14-2.43-0.69-4.64-3.23-5.73c-0.97-1.98-1.94-3.95-2.9-5.93
		c-0.94-2.87-1.67-5.82-2.89-8.57c-0.63-1.42-2.12-2.47-3.22-3.69c-0.25,1.35-0.5,2.7-0.75,4.05c-1.54,5.56-3.08,11.13-4.62,16.69
		c-0.89,1.12-1.54,2.72-2.7,3.27c-7.12,3.4-3.32,21.11-18.35,14.03c-4.94-0.77-8.52-6.56-14.39-3.86c-0.7-0.92-1.41-1.85-2.11-2.77
		c-0.73-1.14-1.45-2.28-2.18-3.43c-2.77-8.81-5.54-17.61-9.55-30.36c-0.6,10.36-0.98,16.83-1.35,23.31
		c-1.08,1.78-1.8,3.48,0.96,4.44c0.1-0.18,0.25-0.25,0.45-0.19c-0.11,1.53-0.23,3.06-0.34,4.59c-6.02,1.34-12.66,0.54-17.76,5.09
		c-0.25,0.05-0.5,0.11-0.74,0.16c-0.69-1.74-1.39-3.48-2.08-5.22c-0.5-1.5-1-3-1.49-4.5c-0.13-0.56-0.26-1.12-0.39-1.68
		c-0.16-0.63-0.31-1.25-0.47-1.88c-0.11-0.56-0.22-1.12-0.33-1.69c-0.18-1.21-0.35-2.42-0.53-3.64c-0.17-2.32-0.34-4.65-0.51-6.97
		c0.03-4.78,0.06-9.56,0.09-14.35c0.25-3.82,0.49-7.63,0.74-11.45c0.31-1.32,0.62-2.65,0.93-3.98c-3.13-6.24,0.64-11.22,2.99-16.46
		c37.12-0.37,74.05,1.67,110.38,9.78c16.52,3.68,32.84,8.25,49.26,12.42c0.37,1.05,0.74,2.09,1.11,3.14
		c0.41,0.74,0.83,1.48,1.24,2.23c0.35,1.18,0.7,2.37,1.05,3.55c0.24,0.59,0.49,1.18,0.73,1.77c0.1,0.57,0.2,1.15,0.31,1.72
		c-1.2,1.97-0.24,3.31,1.3,4.49c0.13,0.88,0.26,1.75,0.39,2.63c0.19,0.6,0.38,1.2,0.57,1.8c0.11,0.87,0.22,1.75,0.34,2.62
		c0.15,0.6,0.3,1.21,0.45,1.81c0.14,1.47,0.28,2.93,0.42,4.4c-1.2,1.88-1.42,3.69,0.34,5.38c0.06,1.43,0.12,2.87,0.18,4.3
		c-0.17,0.9-0.35,1.79-0.52,2.69c-0.07,0.58-0.15,1.17-0.22,1.75c-0.21,0.6-0.42,1.21-0.63,1.81c0.37,2.55,0.73,5.09,1.1,7.64
		C395.15,253.92,395.61,254.63,396.07,255.35z"/>
	<path class="st6" d="M281.16,99.22c7.05,1.78,14.11,3.57,21.16,5.35c0.64,0.55,1.28,1.1,1.92,1.65c0,0,0.02-0.01,0.02-0.01
		c-1.83,2.4-3.67,4.79-5.5,7.19c8.9-6.28,19.6-6.72,28.79-10.85c3.47-1.56,6.4-4.39,10.19-1.84c4.5,3.02,4.13,7.53,2.41,11.89
		c-0.84,2.14-4.13,3.08-3.26,6.21c-2.07,0.42-3.93,1.44-3.17,3.77c0.73,2.24,2.99,0.74,4.48,1.09c3.32,0.79,7.91-0.16,9.2,4.5
		c2.11,7.65,6.25,15.12,2.78,23.45c-5.74-1.07-5.09,6.21-9.75,7.18c-28.64,5.92-57.62,4.96-86.54,4.22
		c-24.48-0.63-48.86-2.74-72.47-10.13c-10.43-3.27-15.04-16.38-6.72-23.35c7.75-6.49,10.95-14.15,10.08-22.96
		c-0.74-7.49-1.06-8.23,7.8-6.49c0.24-0.02,0.46,0.03,0.67,0.14c0.64,0.54,1.27,1.08,1.91,1.62c0,0,0-0.02,0-0.02
		c-1.72,2.47-1.17,3.58,1.45,5.61c7.74,6.01,20.25,2.72,25.74,15.85c-0.47-10.68-9.11-10.73-12.83-15.8
		c0.74-0.81,1.56-1.71,2.38-2.6c0.58-0.07,1.17-0.15,1.75-0.22c1.26,1.23,2.14,0.96,2.68-0.67c0.58-0.09,1.15-0.18,1.73-0.27
		c0.61-0.17,1.22-0.33,1.83-0.5c0.58-0.1,1.17-0.2,1.75-0.3c1.25,1.19,2.13,0.92,2.67-0.68c0.58-0.08,1.16-0.16,1.75-0.24
		c5.53,0.49,10.97,0.4,15.97-2.51c1.48-0.04,2.96-0.08,4.44-0.11c3.63,0.88,7.29,2.23,10.64-0.76c0.59-0.04,1.18-0.08,1.78-0.13
		c2.2,0.95,4.4,1.94,6.21-0.67c3.23-0.01,6.46-0.02,9.68-0.03C276.37,100.65,279.01,98.85,281.16,99.22z"/>
	<path class="st6" d="M144.63,305.76c-0.3-0.32-0.61-0.63-0.91-0.94c-1.81-2.99-2.94-7.04-5.58-8.78c-6.77-4.46-1.87,4.95-5.99,4.82
		c-4.22-3.84-7.41-9.02-8.9-15.13c-3.21-13.2-5.28-27.58-25.04-20.64c-0.12,0.04-0.37-0.27-0.67-0.52c5.04-3.08,10.16-6,12.44-11.85
		c0.29-0.31,0.59-0.62,0.88-0.93c0.6-0.86,1.21-1.72,1.81-2.57c0,0,0.04-0.05,0.04-0.05c0.78-1.25,1.57-2.51,2.35-3.76
		c0-0.26,0.07-0.5,0.21-0.72c3.11-2.94,4.24-6.43,2.98-10.59c0-1.52,0-3.03-0.01-4.55c0.12-2.1,0.24-4.2,0.36-6.31
		c0.07-1.42,0.13-2.85,0.2-4.27c0.23-1.24,0.46-2.47,0.69-3.71c0.06-0.54,0.11-1.07,0.17-1.61c0.25-0.93,0.5-1.87,0.76-2.8
		c0.07-0.55,0.14-1.09,0.2-1.64c2.64-5.05,5.28-10.11,7.92-15.16c3.54,2.57,4.97-1.75,7.56-2.45c19.73-5.29,39.42-10.91,59.88-12.31
		c8.2-0.56,16.69-3.77,24.82,0.7c-0.02,0.57-0.05,1.13-0.07,1.7c-4.36,7.41-8.71,14.83-12.99,22.1c1.07-0.3,2.09-0.59,3.11-0.87
		c1.11,0.38,2.22,0.77,3.33,1.15c-1.3,1.74-2.6,3.49-3.89,5.23c-0.55,0.74-1.1,1.47-1.66,2.21c-0.11,0.4-0.22,0.81-0.32,1.21
		c-0.68,0.84-1.37,1.67-2.05,2.51c-6.75,6.54-13.5,13.08-20.25,19.62c-3.3,0.32-5.02,2.44-6.06,5.33l-0.09,0.3l-0.31,0.01
		c-6.24,2.1-11.99,4.53-8.6,13c0.15,3.26,0.3,6.51,0.45,9.77c-0.16,0.9-0.32,1.81-0.47,2.71c-4.84,6.98-5.33,14.04-0.88,21.49
		c2.7,4.51,4.93,9.3,7.37,13.97c-2.74,3.93-5.59-0.29-8.38,0.12c-0.79-0.45-1.59-0.9-2.38-1.35c-0.66,0.31-1.32,0.63-1.99,0.94
		c0.52,0.39,1.04,0.79,1.55,1.18c0.41,0.63,0.83,1.27,1.24,1.9c0.41,1.28,0.82,2.57,1.23,3.85c0.45,0.74,0.91,1.49,1.36,2.23
		c0.18,0.85,0.36,1.7,0.54,2.54c-0.71,0.36-1.43,0.72-2.14,1.07c-1.19-0.1-2.38-0.21-3.57-0.31c-0.93-0.17-1.86-0.33-2.78-0.5
		c-0.52-0.09-1.04-0.19-1.57-0.28c-0.35-0.22-0.69-0.44-1.04-0.66c-1.13-0.09-2.25-0.18-3.38-0.27c-0.35-0.21-0.7-0.42-1.05-0.63
		c-0.54-0.08-1.07-0.17-1.61-0.25c-0.34-0.22-0.69-0.44-1.03-0.67c-0.27,0.02-0.53-0.04-0.76-0.19c-0.35-0.22-0.69-0.45-1.04-0.67
		c-0.27,0.02-0.52-0.05-0.74-0.21c-0.34-0.23-0.68-0.46-1.02-0.69c-0.27,0.03-0.54,0-0.79-0.11
		C146.92,307.58,145.78,306.67,144.63,305.76z M123.73,208.88c0.04,0.31,0.07,0.62,0.11,0.93c0.8-0.09,1.6-0.18,2.4-0.26
		c-0.04-0.31-0.07-0.62-0.11-0.93C125.33,208.7,124.53,208.79,123.73,208.88z"/>
	<path class="st4" d="M220.8,180c-8.13-4.47-16.63-1.26-24.82-0.7c-20.46,1.39-40.15,7.01-59.88,12.31
		c-2.59,0.7-4.02,5.02-7.56,2.45c1.76-3.54,3.53-7.07,5.29-10.61c0.06-0.26,0.16-0.51,0.27-0.74c0.72-1.92,1.44-3.84,1.87-5
		c-6.2-5.9-12.54,1.7-18.53-1.49c0.42-0.26,0.84-0.51,1.25-0.77c3.45,0.09,6.38-0.85,8.18-4.07c0.41-0.34,0.82-0.68,1.23-1.02
		c4.06-0.64-0.13-2.52,0.55-3.66c0.41-0.31,0.82-0.61,1.24-0.92c-0.41-0.31-0.82-0.62-1.23-0.93c0.28-1.17,0.57-2.34,0.85-3.5
		c2.89-0.58,5.79-1.16,8.68-1.74c1.19,1.79,3.03,3.46,3.43,5.41c0.63,3.11-0.21,7.03,4.03,7.73c4.6,0.76,8.3-1.27,10.48-5.61
		c0.57-0.45,1.14-0.91,1.72-1.36c4.34-1.15,7.41-3.48,7.75-8.34c-0.05-0.2-0.03-0.39,0.05-0.57c3.89-1.49,4.39-4.53,3.17-7.89
		c-4.53-12.56-4.59-23.36,10.48-28.78c0.51-0.18,1.09-1.87,0.79-2.35c-4.49-7.38-8.7-14.98-13.85-21.89
		c-4.99-6.69-6.87-11.29-3.83-13.61c2.31,1.23,4.61,2.47,6.92,3.7c0.68,0.53,1.36,1.06,2.03,1.59c3.16,1.83,6.33,3.66,9.49,5.49
		c0.67,0.54,1.35,1.07,2.02,1.61c0.5,0.16,1.01,0.33,1.51,0.49c0.72,0.4,1.44,0.81,2.16,1.22c2.01,1.21,4.03,2.41,6.04,3.62
		c-8.85-1.73-8.53-0.99-7.79,6.49c0.87,8.81-2.33,16.47-10.08,22.96c-8.31,6.96-3.71,20.08,6.72,23.35
		c23.61,7.4,47.99,9.5,72.47,10.13c28.91,0.75,57.89,1.7,86.54-4.22c4.65-0.96,4.01-8.25,9.75-7.18c1.47,4.13-6.74,8.26-0.01,12.4
		c3.22,3.63,3.63,9.49,9.07,11.35c0.86,1.17,1.72,2.34,2.57,3.51c-0.59,1.64-1.43,3.23-1.71,4.92c-0.77,4.59,2.12,7.27,5.71,5.34
		c3.39-1.82-0.42-6.13,0.1-9.36c0,0,0.03-0.03,0.03-0.02c1.35-0.61,2.72-1.18,4.04-1.85c9.44-4.75,5.03-16.36,11.23-22.72
		c3.32-1.55,6.63-3.1,10.3-4.81c-0.51,4.21-1.03,8.42-1.54,12.62c0,0-0.06,0.05-0.06,0.06c-3.7,2.16-0.09,4.91-0.6,7.33
		c-1.19,1.15-2.39,2.3-3.58,3.45c-1.24,1.08-2.48,2.17-3.73,3.25c-6.7,5.56,0.97,9.15,1.92,13.65c0.63,2.96,1.72,5.83,2.61,8.73
		c-16.41-4.17-32.74-8.74-49.26-12.42c-36.34-8.1-73.27-10.15-110.38-9.78c-0.09-1.6-0.17-3.19-0.35-6.48
		C223.99,174.89,222.4,177.45,220.8,180z"/>
	<path class="st1" d="M168.67,308.09c-0.41-1.28-0.82-2.57-1.23-3.85c0.52-0.89,1.05-1.79,1.57-2.68c2.79-0.4,5.64,3.81,8.38-0.12
		c3.53-2.41,6.34,1.08,9.56,1.18c0.63,0.47,1.26,0.94,1.89,1.41c0.27,0.45,0.54,0.91,0.81,1.36c0.32-0.41,0.64-0.82,0.96-1.23
		c0-0.31-0.01-0.61-0.01-0.92c0.58,0.05,1.17,0.09,1.75,0.14c8.07,5.63,16.34,4.68,24.45,0.34c14.94-8,30.26-9.46,45.87-2.55
		c19.65,8.7,39.04,10.8,58.31-0.84c2.85,0.28,5.71,0.56,8.59,0.84c-0.79,1.66-1.34,2.82-1.89,3.98c1.31,0.37,2.62,0.74,3.93,1.11
		c0.27,0.23,0.53,0.46,0.8,0.69c0.35,0.53,0.69,1.07,1.04,1.6c-0.77,0.93-1.54,1.86-2.32,2.79c-6.32-0.6-6.35,5.65-9.38,8.63
		c0,0-0.04,0.03-0.04,0.03c-7.05,1.76-11.89,6.71-16.77,11.61l-0.15,0.22c0,0-0.25-0.08-0.25-0.08c-8.45,3.37-16.89,6.73-25.34,10.1
		c-0.61,0.05-1.21,0.11-1.82,0.16c-1.99-1.33-3.43-0.8-4.4,1.3c-1.49,0.16-2.98,0.32-4.47,0.49c-1.47-1.02-2.75-1.24-3.49,0.82
		c-1.47,0.1-2.93,0.19-4.4,0.29c-0.61,0.02-1.22,0.05-1.83,0.07c-4.7,0.02-9.39,0.04-14.09,0.06c-0.91-0.04-1.83-0.07-2.74-0.11
		c-2.42,0.08-4.85,0.17-7.27,0.25c-0.44-0.06-0.88-0.11-1.31-0.17c-9.55-2.99-19.1-5.98-28.64-8.97c-2.96-1.43-5.92-2.86-8.88-4.28
		c-0.56-0.4-1.12-0.8-1.67-1.2c-4.67-3.26-9.35-6.52-14.02-9.79c-2.84-2.52-5.67-5.03-8.51-7.55c-0.37-0.11-0.75-0.23-1.12-0.35
		c-0.18-0.85-0.36-1.7-0.54-2.54C169.58,309.57,169.13,308.83,168.67,308.09z"/>
	<path class="st3" d="M304.79,444.58c-0.91-1.16-1.82-2.32-2.74-3.48c-0.56-7.66-1.13-15.31-1.69-22.97
		c0.25-1.62,0.49-3.23,0.74-4.85c0.13-1.81,0.26-3.62,0.39-5.43c0.14-1.15,0.27-2.3,0.41-3.45c4.91,2.35,2.79-5.59,5.44-4.68
		c-7.11,1.96,3.08-8.93-4.13-7.86c-2.38-0.01-4.76-0.02-7.14-0.03c-1.52,0.12-3.04,0.23-4.56,0.35c-2.61,0.2-5.21,0.4-7.82,0.59
		c-4.67,0.15-9.34,0.29-14.01,0.44c-5.4,1.42-8.93-0.01-9.41-6.14c-0.18-1.7-0.37-3.4-0.55-5.1c3.58-5.47,4.17-5.3,8.16,2.4
		c2.47-1.12,4.82-2.3,4.25-5.7c1.62-2.33-0.31-2.4-1.76-2.78l0.02,0.03c3.28-5.84,6.55-11.67,9.83-17.51c1.73,0,3.47,0,5.2,0
		c-0.62,4.45,1.12,5.81,5.76,6.23c5.73,0.51,11.84-7.48,17.14,0.67c9.09,6.49,18.89,12.1,26.05,20.99
		c-0.15,1.98,0.82,2.85,2.74,2.77c0.79,0.31,1.57,0.63,2.36,0.94c5.27,4.72,16.91-0.82,17.13,13c4.92-9.25,9.38-16.31,19.22-16.49
		c-6.05,8.91-6.41,21.63-16.8,26.01c-7.26-16.15-16.03-14.83-24.35-1.57c-2.49,3.97-0.39,10.84-0.39,20.78
		c-5.42-13.19-10.27-22.61-14.76-3.97c-1.39-1.07-1.76-1.2-1.82-1.42c-0.9-3.16-0.4-9.82-3.14-8.63c-4.18,1.82-3.09,8.44-3.45,13.21
		c-6.58,2.72-6.33,6.79-2.06,11.52C307.49,443.23,306.14,443.91,304.79,444.58z M282.01,387.38c1.49-1.62,3.62-3.92,5.74-6.22
		c-2.36-1.17-4.62-2.75-7.11-3.4c-3.46-0.9-4.59,1.93-4.32,4.46C276.55,384.51,276.98,387.64,282.01,387.38z"/>
	<path class="st7" d="M369.62,99.12c12.89,0.31,16.88,11.27,13.3,31.11c-1.79,9.93-6.22,17.99-11.72,25.84
		c-0.97,1.38-3.12,2.36-4.88,2.67c-2.64,0.47-2.27-2.15-3.15-3.72c-5.91-10.52-3.54-23.21-9.75-33.97
		C349.51,114.27,361.91,98.93,369.62,99.12z"/>
	<path class="st3" d="M147.9,375.96c2.97,1,5.95,2.01,8.92,3.01c0.52,0.48,1.03,0.96,1.55,1.43c2.47,0.93,4.94,1.86,7.41,2.79
		c-1.49,0.78-2.97,1.56-4.4,2.3c7.9,10.13,24.46-4.25,30.69,10.81c0.72,4.4,1.44,8.8,2.15,13.2c-1.51-0.72-3.02-1.43-5.16-2.44
		c-1.28,4.15-2.53,8.2-3.77,12.26c-5.21-0.17-0.48,6.1-5.04,7.05c1.56-4.82-1.39-6.33-4.78-8.32c-4.31-2.54-11.32-3.08-10.19-11.05
		c0.18-1.28,1.51-4.47-1.86-4.21c-1.1,0.09-2.05,2.21-3,3.33c-2.11-1.32-4.42-2.76-6.94-4.33c2.88-1.43,5.39-2.67,8.5-4.2
		c-9.63-3.33-18.46-6.38-27.3-9.44c0.28-0.8,0.56-1.59,0.84-2.39c6.88,0.71,13.76,1.41,24.27,2.49c-7.91-4.49-12.49-7.08-17.06-9.67
		c-0.26-1.57-0.52-3.14-0.79-4.71c0.52,0.08,1.05,0.17,1.57,0.25C144.98,374.72,146.44,375.34,147.9,375.96z"/>
	<path class="st0" d="M251.6,371.53c0.21,0.18,0.3,0.4,0.28,0.68c-0.15,0.94-0.29,1.89-0.44,2.83c-0.2,0.23-0.39,0.46-0.59,0.7
		c-0.25,0.14-0.51,0.26-0.78,0.35c-0.61-0.27-1.22-0.54-1.83-0.81c-0.02,1.07-0.05,2.14-0.07,3.21c-0.43,0.86-0.85,1.71-1.28,2.57
		c-0.43-0.99-0.86-1.98-1.37-3.16c-5.36,3.04-1.86,9.06-4.44,12.92c-7.93,2.62-16.22-8.53-23.97,0.63c-1.15,0.15-2.3,0.3-3.45,0.45
		c-1.38-1.18-2.63-1.27-3.64,0.46c-1.44,0.16-2.89,0.31-4.33,0.47c-1.14-1.19-2.07-1.12-2.76,0.45c-1.74,0.16-3.48,0.31-5.23,0.47
		c-0.89-0.33-1.78-0.66-2.67-0.99c-3.25-8.46,2.34-7.42,7.87-6.12c-0.82-3.63-6.51-4.74-3.26-8.6c2.46-2.93,5.56-3.14,9.36-1.79
		c2.3,0.82,5.29-0.34,7.98-0.6c-2.01-1.71-3.81-3.84-6.09-5.02c-3.06-1.59-6.49-2.44-9.77-3.61c0.83-0.92,1.67-1.84,2.5-2.75
		c0.69-0.5,1.38-1,2.07-1.5c4.38-1.62,8.75-3.24,13.13-4.87c5.72,5.15,7.3,12.43,9.85,19.2c0.48,1.27,0.73,2.62,1.09,3.94
		c1.13-0.82,2.25-1.64,3.38-2.46c7.47,1.04,0.93-9.1,7.2-9.02C244.1,370.19,247.85,370.86,251.6,371.53z"/>
	<path class="st4" d="M336.89,118.8c-0.87-3.13,2.42-4.07,3.26-6.21c1.72-4.35,2.08-8.87-2.41-11.89
		c-3.79-2.55-6.72,0.28-10.19,1.84c-9.19,4.13-19.89,4.57-28.79,10.85c1.83-2.4,3.67-4.79,5.5-7.19
		c14.41-3.7,26.63-12.02,39.72-18.56c9.21-4.61,17.07-14.04,29.32-9.72c-2.09,4.75-4.19,9.5-6.28,14.26
		c-6.12,6.26-12.24,12.52-18.36,18.78C344.73,113.57,340.81,116.19,336.89,118.8z"/>
	<path class="st4" d="M423.62,461.95c-4.03,4.01-4.35-1.14-5.07-2.55c-2.56-5.05-4.5-10.42-7.98-15.44
		c0.53,3.39,1.07,6.78,1.59,10.12c-6.21-2.05-8.25-12.21-17.07-7.25c0.22-5.65,0.44-11.3,0.66-16.95c0.12-1.16,0.24-2.32,0.37-3.49
		c0.23-1.19,0.47-2.39,0.7-3.58c-0.05-0.83-0.11-1.67-0.16-2.5c-0.28-0.8-0.55-1.61-0.83-2.41c-0.62-1.36-1.24-2.72-1.86-4.09
		c-0.56-0.73-1.12-1.47-1.67-2.2c-2.54-3.94-5.09-7.88-7.63-11.82c2.04,0.73,4.09,1.45,6.13,2.18
		c19.36,12.31,27.92,31.01,31.22,52.82c-1.3,1.27-1.09,2.16,0.66,2.69C422.99,458.96,423.3,460.46,423.62,461.95z M410.05,440.23
		c0.54-1.13,1.13-1.78,1-2.23c-0.15-0.54-0.9-0.9-1.4-1.34c-0.29,0.44-0.84,0.91-0.8,1.3C408.92,438.55,409.42,439.09,410.05,440.23
		z"/>
	<path class="st2" d="M162.4,82.36c-3.04,2.32-1.16,6.92,3.83,13.61c5.15,6.9,9.36,14.51,13.85,21.89c0.29,0.48-0.28,2.17-0.79,2.35
		c-15.07,5.43-15.01,16.22-10.48,28.78c1.21,3.36,0.71,6.4-3.17,7.89c2.74-8.34-3.89-14.16-5.74-21.26
		c11.55-23.19,9.3-33.29-10.22-45.95c-0.53-1.01-1.06-2.01-1.58-3.02c-1.31-2.52-3.68-2.37-5.95-2.22
		c-0.16,0.01-0.22,1.58-0.33,2.42l-0.01,0.02c-1.03-0.56-2.07-1.12-3.1-1.68c2.51-2.94,5.03-5.89,7.54-8.83
		C152.54,75.91,157.83,78.18,162.4,82.36z"/>
	<path class="st5" d="M146.25,76.35c-2.51,2.94-5.03,5.89-7.54,8.83c1.03,0.56,2.07,1.12,3.1,1.68c-3.6,17.57-10.6,34.86-4.61,53.26
		c-4.48,0.17-1.83-9.43-8.53-6.22c-0.98-9.97-0.66-19.67,3.17-29.25c2.43-6.07-5.14-6.79-7.16-10.62c-0.61-1.16-1.83-3.04-1.44-3.51
		c1.6-1.95,2.05,0.62,3.12,1.06c3.89,1.62,9.01,7.23,8.9-3.72C135.2,82.64,138.44,76.23,146.25,76.35z"/>
	<path class="st5" d="M389.98,162.99c0.51-4.21,1.03-8.42,1.54-12.62c-3.67,1.71-6.98,3.26-10.3,4.81c-0.67-0.07-1.34-0.14-2-0.21
		c7.23-8.86,7.45-19.62,8.3-30.24c0.1-1.26,1.2-2.48,2.02-3.58c0.1-0.13,1.59,0.42,2.04,0.97
		C395.81,127.24,394.57,157.61,389.98,162.99z"/>
	<path class="st3" d="M201.12,366.99c3.27,1.17,6.71,2.02,9.77,3.61c2.28,1.19,4.08,3.32,6.09,5.02c-2.68,0.27-5.68,1.42-7.98,0.6
		c-3.81-1.35-6.91-1.14-9.36,1.79c-3.24,3.87,2.45,4.98,3.26,8.6c-5.53-1.3-11.12-2.35-7.87,6.12c-6.91,0.31-0.3-11.2-8.51-9.74
		c0.79-1.41,1.58-2.82,2.36-4.23c0.13-0.22,0.32-0.35,0.58-0.37c0.66-0.57,1.32-1.15,1.98-1.72c0.27-0.28,0.55-0.57,0.82-0.85
		c2.22-0.19,3.49-1.32,3.59-3.61C197.61,370.47,199.36,368.73,201.12,366.99z"/>
	<path class="st2" d="M128.67,133.9c6.69-3.21,4.05,6.39,8.53,6.22l0.13,0.15c0.29,6.45,0.58,12.9,0.87,19.34
		c-2.89,0.58-5.79,1.16-8.68,1.74c-0.5-0.03-1.01-0.06-1.51-0.09C124.69,152.05,128.08,143.01,128.67,133.9z"/>
	<path class="st2" d="M336.89,118.8c3.92-2.61,7.84-5.23,11.76-7.84c-3.02,4.46-5.12,7.95,1.45,12.17
		c7.59,4.86,1.05,14.83,5.61,21.32c-0.36,0.9-0.72,1.8-1.08,2.69c0,0-0.07,0.07-0.06,0.07c-5.54,4.53-1.42,11.6-4.41,16.81
		c-6.73-4.14,1.48-8.26,0.01-12.4c3.47-8.33-0.67-15.79-2.78-23.45c-1.29-4.67-5.88-3.72-9.2-4.5c-1.49-0.35-3.75,1.15-4.48-1.09
		C332.96,120.24,334.82,119.22,336.89,118.8z"/>
	<path class="st4" d="M247.55,356.92c-0.22,5.81-0.61,9.46-7.47,4.84c-4.72-3.18-10.83-4.23-16.11-6.69
		c-2.84-1.32-3.24-4.58-1.79-6.91c1.83-2.95,3.42,0.39,5,1.1c5.37,2.4,10.69,4.81,16.81,4.13
		C247.03,353.05,248.52,354.12,247.55,356.92z"/>
	<path class="st8" d="M188.88,378.77c-0.79,1.41-1.58,2.82-2.36,4.23c8.22-1.46,1.61,10.05,8.51,9.74c0.89,0.33,1.78,0.66,2.67,0.99
		c-1.63,1.4-5.01-1.01-5.63,2.59c-6.23-15.06-22.8-0.69-30.69-10.81c1.42-0.75,2.91-1.53,4.4-2.3
		C174.1,384.97,181.57,382.25,188.88,378.77z"/>
	<path class="st6" d="M260.27,354.31c4.14-1.42,9.26-3.13,14.35-4.93c1.6-0.56,3.08-3.37,4.82-0.88c1.68,2.42,0.67,5.34-1.66,6.52
		c-6.47,3.27-13.06,6.45-19.91,8.75c-2.79,0.94-3.23-2.68-3.47-5C254.03,355.39,254.45,352.6,260.27,354.31z"/>
	<path class="st5" d="M109.98,252.72c-2.28,5.85-7.4,8.77-12.44,11.85c0.3,0.24,0.55,0.56,0.67,0.52
		c19.76-6.94,21.83,7.44,25.04,20.64c1.49,6.11,4.68,11.29,8.9,15.13c4.12,0.13-0.77-9.28,5.99-4.82c2.64,1.74,3.76,5.78,5.58,8.78
		c-2.48-2.32-4.95-4.64-7.55-7.08c-1.86,1.32,0.88,6.04-2.51,5.6c-2.39-0.31-5.14-3.08-6.44-5.46c-2.95-5.38-6.49-11.01-7.3-16.88
		c-1.62-11.79-5.59-18.4-18.84-14.34c-1.98,0.61-5.87,1.48-6.56-1.59c-0.66-2.91,3.34-2.42,5.03-3.75
		C103.09,258.54,106.51,255.6,109.98,252.72z"/>
	<path class="st5" d="M180.2,320.76c4.67,3.26,9.35,6.52,14.02,9.79c-6.85,6.33-15.4,5.15-21.7,1.37
		C169.97,330.39,176.72,324.18,180.2,320.76z"/>
	<path class="st5" d="M304.57,331.74l0.25,0.08l0.15-0.22c3.42-1.9,6.84-3.8,10.26-5.7c3.07,3.34,6.18,6.64,9.11,10.1
		c0.15,0.18-1.16,2.33-1.85,2.37c-6.81,0.38-13.41-0.29-18.81-5.15C303.98,332.73,304.27,332.23,304.57,331.74z"/>
	<path class="st8" d="M135.53,385.75c-0.28,0.8-0.56,1.59-0.84,2.39c-6.19,0.69-4.06,5.48-4.44,9.03c-0.27,0.59-0.55,1.18-0.82,1.77
		c-0.29,0.3-0.58,0.6-0.88,0.9c-0.6,0.58-1.2,1.16-1.8,1.73c0,0,0,0,0,0c-4.97-2.53-5.62,3.36-8.71,4.48
		c-0.03-0.31-0.06-0.63-0.1-0.94c6.53-6.68,12.77-12.67,10.97-24.11c-0.86-5.45,7.03-7.5,13.04-7.15c0.26,1.57,0.52,3.14,0.79,4.71
		c-1.77-0.01-3.55-0.02-5.32-0.03c-0.5-0.77-1.01-1.54-1.51-2.32c-0.71,0.73-1.43,1.46-2.14,2.19c-1.12,1.01-2.23,2.02-3.35,3.03
		C132.12,382.88,133.82,384.31,135.53,385.75z"/>
	<path class="st7" d="M390.8,401.96c-2.04-0.73-4.09-1.45-6.13-2.18c-0.16-0.85-0.32-1.71-0.48-2.56c3.79-2.62,9.53-0.01,13.14-4.61
		c-2.83-1.01-5.11-1.82-7.38-2.63c0.1-10.39-7.31-6.08-12.39-6.34c2.27-2.99,6.78-6.07,8.66-3.68c3.95,5.03,13.45,4.54,13.25,12.95
		C399.35,398.03,391.17,396.45,390.8,401.96z"/>
	<path class="st8" d="M233.15,378.54c-1.13,0.82-2.25,1.64-3.38,2.46c-0.36-1.31-0.61-2.67-1.09-3.94
		c-2.56-6.77-4.13-14.05-9.85-19.2c5.56,1.43,10.94,3.22,15.14,7.42C229.35,369.44,235.17,374.23,233.15,378.54z"/>
	<path class="st8" d="M250.07,376.07c0.27-0.09,0.53-0.2,0.78-0.34c0.34-0.07,0.68-0.14,1.02-0.21c-0.15-0.16-0.29-0.32-0.44-0.48
		c0.15-0.94,0.29-1.89,0.44-2.83c9.8,1.47,17.81-1.41,23.79-9.57c1.2-1.64,3.01-2.83,4.54-4.22c-3.28,5.84-6.55,11.67-9.83,17.51
		c-2.74,0.17-0.56-5.93-5.41-3.84c-3.67,1.58-7.37,2.25-7.47,7.19c-0.88-0.65-1.99-2.02-2.61-1.82c-2.58,0.82-3.48,3.05-3.62,5.63
		c-1.46-0.68-2.91-1.36-4.37-2.04c0.43-0.86,0.85-1.71,1.28-2.57C248.81,377.67,249.44,376.87,250.07,376.07z"/>
	<path class="st4" d="M211.92,104.87c-0.82,0.9-1.64,1.79-2.38,2.6c3.72,5.07,12.36,5.12,12.83,15.8
		c-5.49-13.13-18-9.85-25.74-15.85c-2.62-2.03-3.17-3.15-1.45-5.61C200.31,105.26,205.89,106.3,211.92,104.87z"/>
	<path class="st8" d="M308.3,365.3c-5.29-8.15-11.41-0.15-17.14-0.67c-4.64-0.42-6.38-1.78-5.76-6.23
		C293.62,358.76,303.21,354.57,308.3,365.3z"/>
	<path class="st8" d="M375.8,386.51c-9.84,0.18-14.29,7.24-19.22,16.49c-0.21-13.81-11.86-8.27-17.13-13
		c13.12,4.4,24.8-0.38,36.4-5.71C375.84,385.03,375.82,385.77,375.8,386.51z"/>
	<path class="st5" d="M377.6,80c6.34,0.26,7.11,5.61,8.85,9.93c0.44,1.08,0.1,3.63-0.18,3.67c-3.84,0.62-5.42-2.62-7.78-4.7
		c-1.05-0.92-2.92-0.92-4.41-1.33C376.56,85.66,379.59,84,377.6,80z"/>
	<path class="st2" d="M379.22,154.96c0.67,0.07,1.34,0.14,2,0.21c-6.19,6.37-1.79,17.97-11.23,22.72c-1.32,0.67-2.69,1.24-4.04,1.85
		C373.97,173.42,371.58,161.51,379.22,154.96z"/>
	<path class="st5" d="M300.5,334.79c-0.72,4.24,1.41,10.31-3.21,12.01c-2.69,0.99-7.05-2.92-7.59-7.58
		C293.29,337.74,296.89,336.27,300.5,334.79z"/>
	<path class="st5" d="M350.17,164.01c2.99-5.2-1.13-12.27,4.41-16.81c-3.58,10.23,0.74,19.16,4.66,28.16
		C353.8,173.5,353.39,167.63,350.17,164.01z"/>
	<path class="st5" d="M195.9,331.75c2.96,1.43,5.92,2.86,8.88,4.28c-1.01,3.69-4.36,7.45-6.96,6.27
		C194.18,340.66,195.06,335.63,195.9,331.75z"/>
	<path class="st2" d="M377.6,80c1.99,4-1.04,5.66-3.52,7.58c-2.36,1.53-4.71,3.07-7.07,4.6c2.09-4.75,4.19-9.5,6.28-14.26
		C374.73,78.62,376.17,79.31,377.6,80z"/>
	<path class="st5" d="M117.43,176.21c6,3.19,12.34-4.41,18.53,1.49c-0.44,1.16-1.15,3.08-1.87,5c-3.63-10.57-10.77-2.25-16.22-3.1
		c-2.8-0.44-6.37,3-8.07-0.62c-0.72-1.54,2.56-2.49,4.72-2.16c1.44,2.59,2.03,1.04,2.62-0.54L117.43,176.21z"/>
	<path class="st3" d="M233.15,378.54c2.02-4.31-3.8-9.1,0.81-13.25c0.34,0.05,0.68,0.11,1.02,0.16c1.79,1.36,3.58,2.71,5.37,4.07
		C234.08,369.44,240.62,379.58,233.15,378.54z"/>
	<path class="st2" d="M365.92,179.77c-0.52,3.22,3.29,7.54-0.1,9.36c-3.59,1.93-6.48-0.75-5.71-5.34c0.28-1.69,1.12-3.28,1.71-4.92
		C363.18,179.17,364.55,179.47,365.92,179.77z"/>
	<path class="st5" d="M133.82,183.45c-1.76,3.54-3.53,7.07-5.29,10.61c-2.64,5.05-5.28,10.11-7.92,15.16
		C121.45,198.8,126.56,190.57,133.82,183.45z"/>
	<path class="st0" d="M300.5,334.79c-3.6,1.48-7.2,2.96-10.8,4.44c-3.49,0.87-6.98,1.74-10.46,2.62c8.45-3.37,16.89-6.73,25.34-10.1
		c-0.3,0.49-0.59,0.99-0.89,1.48C302.62,333.74,301.56,334.27,300.5,334.79z"/>
	<path class="st8" d="M240.35,369.52c-1.79-1.36-3.58-2.71-5.37-4.07c5.47,2.23,12.02,1.48,16.62,6.08
		C247.85,370.86,244.1,370.19,240.35,369.52z"/>
	<path class="st0" d="M315.23,325.91c-3.42,1.9-6.84,3.8-10.26,5.7c4.88-4.9,9.72-9.85,16.77-11.61
		C319.57,321.97,317.4,323.94,315.23,325.91z"/>
	<path class="st4" d="M242.05,99.48c-5,2.91-10.44,3-15.97,2.51C231.4,101.15,236.72,100.31,242.05,99.48z"/>
	<path class="st0" d="M321.78,319.97c3.03-2.98,3.06-9.23,9.38-8.63c-2.28,2.55-4.56,5.09-6.83,7.64
		C323.48,319.31,322.63,319.64,321.78,319.97z"/>
	<path class="st4" d="M257.12,98.6c-3.35,2.99-7.01,1.64-10.64,0.76C250.03,99.11,253.57,98.86,257.12,98.6z"/>
	<path class="st5" d="M128,161.26c0.5,0.03,1.01,0.06,1.51,0.09c-0.28,1.17-0.57,2.34-0.85,3.5c0,0.62-0.01,1.23-0.01,1.85
		c-0.67,1.15,3.51,3.03-0.55,3.66C126.55,167.35,126.58,164.31,128,161.26z"/>
	<path class="st5" d="M118.25,234.1c1.26,4.16,0.13,7.66-2.98,10.59C116.26,241.16,117.26,237.63,118.25,234.1z"/>
	<path class="st5" d="M126.87,171.38c-1.8,3.21-4.73,4.16-8.18,4.07C121.41,174.09,124.14,172.74,126.87,171.38z"/>
	<path class="st5" d="M389.32,170.38c0.51-2.42-3.11-5.17,0.6-7.33C388.84,165.42,392.74,168.19,389.32,170.38z"/>
	<path class="st4" d="M281.16,99.22c-2.15-0.37-4.79,1.44-6.37-1.44C277.02,97.78,279.53,96.56,281.16,99.22z"/>
	<path class="st4" d="M265.11,97.81c-1.81,2.61-4.02,1.62-6.21,0.67C260.96,98.26,263.04,98.03,265.11,97.81z"/>
	<path class="st5" d="M118.6,223.24c-0.12,2.1-0.24,4.2-0.36,6.31C116.65,227.35,116.34,225.23,118.6,223.24z"/>
	<path class="st0" d="M273.01,343.31c0.97-2.1,2.41-2.63,4.4-1.3C275.94,342.44,274.48,342.87,273.01,343.31z"/>
	<path class="st4" d="M394.79,235.01c-1.76-1.69-1.54-3.5-0.34-5.38C394.56,231.43,394.67,233.22,394.79,235.01z"/>
	<path class="st4" d="M396.18,260.13c0.12-0.85,0.24-1.7,0.35-2.55c0.65,1.18,1.29,2.37,1.94,3.55
		C397.71,260.79,396.95,260.46,396.18,260.13z"/>
	<path class="st8" d="M195.85,372.21c-0.1,2.29-1.37,3.42-3.59,3.61C193.46,374.62,194.66,373.42,195.85,372.21z"/>
	<path class="st5" d="M382.01,177.08c1.24-1.08,2.48-2.17,3.73-3.25C384.49,174.91,383.25,176,382.01,177.08z"/>
	<path class="st4" d="M392.29,216.36c-1.54-1.18-2.5-2.52-1.3-4.49C391.42,213.37,391.85,214.86,392.29,216.36z"/>
	<path class="st8" d="M147.9,375.96c-1.46-0.62-2.92-1.24-4.39-1.86C144.98,374.72,146.44,375.34,147.9,375.96z"/>
	<path class="st0" d="M265.05,344.61c0.74-2.06,2.02-1.85,3.49-0.82C267.38,344.07,266.22,344.34,265.05,344.61z"/>
	<path class="st5" d="M144.63,305.76c1.15,0.91,2.29,1.81,3.44,2.72C146.92,307.58,145.78,306.67,144.63,305.76z"/>
	<path class="st5" d="M115.06,245.41c-0.79,1.25-1.57,2.51-2.35,3.76C113.49,247.92,114.28,246.66,115.06,245.41z"/>
	<path class="st5" d="M119.49,215.26c-0.23,1.24-0.46,2.47-0.69,3.71C117.64,217.48,117.68,216.21,119.49,215.26z"/>
	<path class="st8" d="M337.1,389.06c-1.93,0.08-2.89-0.79-2.74-2.77C335.27,387.21,336.18,388.14,337.1,389.06z"/>
	<path class="st0" d="M242,344.92c0.91,0.04,1.83,0.07,2.74,0.11C243.83,344.99,242.91,344.96,242,344.92z"/>
	<path class="st2" d="M422.67,457.46c-1.74-0.52-1.96-1.42-0.66-2.69C422.23,455.67,422.45,456.57,422.67,457.46z"/>
	<path class="st5" d="M170.58,312.86c0.37,0.12,0.74,0.23,1.12,0.35c-1.08,0.24-2.17,0.48-3.25,0.73
		C169.15,313.58,169.86,313.22,170.58,312.86z"/>
	<path class="st5" d="M162.08,313.12c0.93,0.17,1.86,0.33,2.78,0.5C163.64,315.13,162.78,314.57,162.08,313.12z"/>
	<path class="st4" d="M394.44,242c0.17-0.9,0.35-1.79,0.52-2.69C394.79,240.21,394.62,241.11,394.44,242z"/>
	<path class="st4" d="M117.14,176.29c-0.59,1.57-1.18,3.13-2.62,0.54C115.4,176.65,116.27,176.47,117.14,176.29z"/>
	<path class="st4" d="M216.35,103.97c-0.54,1.64-1.42,1.9-2.68,0.67C214.56,104.42,215.45,104.2,216.35,103.97z"/>
	<path class="st5" d="M120.41,210.85c-0.25,0.93-0.5,1.87-0.76,2.8C118.4,212.31,118.96,211.46,120.41,210.85z"/>
	<path class="st4" d="M224.33,102.23c-0.54,1.6-1.42,1.88-2.67,0.68C222.55,102.68,223.44,102.45,224.33,102.23z"/>
	<path class="st5" d="M354.65,147.13c0.36-0.9,0.72-1.8,1.08-2.69C355.36,145.34,355.01,146.24,354.65,147.13z"/>
	<path class="st5" d="M112.67,249.22c-0.6,0.86-1.21,1.72-1.81,2.57C111.46,250.94,112.07,250.08,112.67,249.22z"/>
	<path class="st4" d="M219.91,103.2c-0.61,0.17-1.22,0.33-1.83,0.5C218.69,103.54,219.3,103.37,219.91,103.2z"/>
	<path class="st4" d="M396.07,255.35c-0.46-0.72-0.91-1.43-1.37-2.15C395.15,253.91,395.61,254.63,396.07,255.35z"/>
	<path class="st4" d="M195.17,101.83c-0.64-0.54-1.27-1.08-1.91-1.62C193.89,100.75,194.53,101.29,195.17,101.83z"/>
	<path class="st0" d="M258.83,344.97c0.61-0.02,1.22-0.05,1.83-0.07C260.05,344.93,259.44,344.95,258.83,344.97z"/>
	<path class="st3" d="M205.69,362.73c-0.69,0.5-1.38,1-2.07,1.5C204.31,363.73,205,363.23,205.69,362.73z"/>
	<path class="st5" d="M233.41,345.01c0.44,0.06,0.88,0.11,1.31,0.17C234.29,345.12,233.85,345.06,233.41,345.01z"/>
	<path class="st2" d="M186.54,96.45c-0.72-0.41-1.44-0.81-2.16-1.22C185.1,95.64,185.82,96.04,186.54,96.45z"/>
	<path class="st2" d="M182.87,94.74c-0.67-0.54-1.35-1.07-2.02-1.61C181.52,93.67,182.19,94.21,182.87,94.74z"/>
	<path class="st2" d="M171.35,87.64c-0.68-0.53-1.36-1.06-2.03-1.59C170,86.58,170.68,87.11,171.35,87.64z"/>
	<path class="st2" d="M117.94,405.11c0.03,0.31,0.06,0.63,0.1,0.94c-0.27,0.11-0.37,0.3-0.29,0.59c-0.5,0.13-1,0.26-1.5,0.38l0,0
		C116.81,406.39,117.38,405.75,117.94,405.11z"/>
	<path class="st8" d="M191.44,376.68c-0.66,0.57-1.32,1.15-1.98,1.72C190.12,377.83,190.78,377.25,191.44,376.68z"/>
	<path class="st8" d="M158.37,380.4c-0.52-0.48-1.03-0.96-1.55-1.43C157.34,379.44,157.86,379.92,158.37,380.4z"/>
	<path class="st4" d="M393.6,245.56c0.21-0.6,0.42-1.21,0.63-1.81C394.01,244.35,393.81,244.96,393.6,245.56z"/>
	<path class="st4" d="M393.24,220.8c-0.19-0.6-0.38-1.2-0.57-1.8C392.86,219.59,393.05,220.2,393.24,220.8z"/>
	<path class="st4" d="M394.02,225.23c-0.15-0.6-0.3-1.21-0.45-1.81C393.72,224.02,393.87,224.63,394.02,225.23z"/>
	<path class="st4" d="M390.68,210.15c-0.24-0.59-0.49-1.18-0.73-1.77C390.19,208.97,390.44,209.56,390.68,210.15z"/>
	<path class="st4" d="M388.9,204.83c-0.41-0.74-0.83-1.48-1.24-2.23C388.07,203.34,388.48,204.08,388.9,204.83z"/>
	<path class="st4" d="M304.24,106.22c-0.64-0.55-1.28-1.1-1.92-1.65C302.96,105.12,303.6,105.67,304.24,106.22z"/>
	<path class="st5" d="M148.86,308.6c0.34,0.23,0.68,0.46,1.02,0.69C149.54,309.06,149.2,308.83,148.86,308.6z"/>
	<path class="st5" d="M152.41,310.36c0.34,0.22,0.69,0.45,1.03,0.67C153.1,310.81,152.76,310.58,152.41,310.36z"/>
	<path class="st5" d="M159.48,312.17c0.35,0.22,0.69,0.44,1.04,0.66C160.17,312.62,159.82,312.4,159.48,312.17z"/>
	<path class="st5" d="M150.62,309.5c0.35,0.22,0.69,0.45,1.04,0.67C151.31,309.95,150.97,309.73,150.62,309.5z"/>
	<path class="st5" d="M155.05,311.28c0.35,0.21,0.7,0.42,1.05,0.63C155.75,311.7,155.4,311.49,155.05,311.28z"/>
	<path class="st8" d="M395.76,429.87c-0.22,5.65-0.44,11.3-0.66,16.95c-1,3.85-2.01,7.69-3.01,11.54c-0.08,0.58-0.15,1.17-0.23,1.75
		c-0.27,0.06-0.53,0.06-0.8,0.02c-6.88-19.29-21.29-6.48-35.95-6.99c8.56-3.23,12.53-6.44,11.24-13.06
		c-0.08-0.43,2.34-1.9,2.48-1.76c6.5,6.43,11.98-1.9,17.74-1.15C392.95,437.99,395.04,435.25,395.76,429.87z"/>
	<path class="st3" d="M354.57,483.96c0.89-4.82-2.59-12.14,4.46-13.56c5.84-1.18,6.19-8.57,11.67-8.32
		c5.12,0.24,6.79,8.2,13.78,6.13c-2.99,4.75-6.5,5.47-10.8,4c-1.78-0.61-3.6-1.07-5.41-1.59c0.67,1.83,1.61,3.61,1.93,5.5
		c0.39,2.32,0.26,4.73,0.36,7.09C365.23,483.47,359.9,483.72,354.57,483.96z"/>
	<path class="st3" d="M384.18,397.22c0.16,0.85,0.32,1.71,0.48,2.56c2.54,3.94,5.09,7.88,7.63,11.82c-0.1,0.47-0.2,0.93-0.3,1.4
		c-1.87,2.52-2.88,6.93-7,5.61c-4.12-1.32-1.98-5.93-3.09-8.86c-1.71-4.48-4.57-8.52-6.81-12.81c-0.61-1.16-1.35-3.48-1.02-3.69
		c2.12-1.37,4.33-3.44,7.17-1.37c-0.76,1.04-1.52,2.09-2.75,3.77C380.68,396.25,382.43,396.74,384.18,397.22z"/>
	<path class="st8" d="M354.57,483.96c5.33-0.25,10.66-0.49,15.99-0.74c0.58-0.04,1.17-0.08,1.75-0.12c2.18-0.22,4.75,0.96,6.23-1.75
		c0.59,0.02,1.18,0.05,1.77,0.07c0.49,0.69,0.98,1.38,1.47,2.07c-3.74,3.43-7.49,6.86-11.23,10.29c-5.66-2.66-11.32-5.32-16.98-7.98
		C353.9,485.2,354.23,484.58,354.57,483.96z"/>
	<path class="st8" d="M304.79,444.58c1.35-0.67,2.69-1.35,4.25-2.13c-4.27-4.73-4.51-8.8,2.06-11.52c0.9,5.89,1.79,11.77,2.69,17.66
		c-0.36,1.64-0.73,3.28-1.09,4.92C310.06,450.53,307.43,447.56,304.79,444.58z"/>
	<path class="st3" d="M385.49,422.78c-8.36,1.51-14.11-0.58-20.07,2.22c-0.82,0.38-2.7-1.26-3.93-2.18c-0.36-0.27-0.15-1.3-0.2-1.98
		c1.24,0.01,2.48,0.01,3.72,0.02c5.21,0.07,10.42,0.01,15.61,0.29C382.26,421.23,383.87,422.21,385.49,422.78z"/>
	<path class="st8" d="M384.18,397.22c-1.75-0.48-3.5-0.97-5.69-1.57c1.22-1.68,1.99-2.72,2.75-3.77c3.35,1.43,6.03-0.23,8.7-1.9
		c2.27,0.81,4.55,1.62,7.38,2.63C393.71,397.21,387.97,394.6,384.18,397.22z"/>
	<path class="st8" d="M390.9,461.85c0.02,1.49,0.03,2.98,0.05,4.46c-1.5,0.58-3,1.16-4.5,1.74
		C385.58,464.29,386.84,462.06,390.9,461.85z"/>
	<path class="st2" d="M386.46,468.05c1.5-0.58,3-1.16,4.5-1.74c-0.26,0.64-0.52,1.27-0.78,1.91c-1.11,1.44-2.22,2.87-3.34,4.31
		C386.71,471.04,386.58,469.54,386.46,468.05z"/>
	<path class="st3" d="M378.54,481.36c-1.48,2.71-4.05,1.53-6.23,1.75C373.95,480.94,375.63,478.96,378.54,481.36z"/>
	<path class="st3" d="M381.79,483.5c-0.49-0.69-0.98-1.38-1.47-2.07c1.17-0.61,2.34-1.23,3.51-1.84c0.07,0.41,0.15,0.82,0.22,1.24
		C383.29,481.72,382.54,482.61,381.79,483.5z"/>
	<path class="st8" d="M396.83,422.81c-0.23,1.19-0.47,2.39-0.7,3.58C395.12,424.95,395,423.69,396.83,422.81z"/>
	<path class="st8" d="M386.15,474.21c0.08,1.19,0.16,2.37,0.24,3.56c-0.25-0.01-0.49,0.02-0.72,0.09c-0.11-0.13-0.22-0.25-0.33-0.38
		C385.85,476.45,383.36,474.68,386.15,474.21z"/>
	<path class="st8" d="M384.05,480.83c-0.07-0.41-0.15-0.82-0.22-1.24c0.5-0.7,1.01-1.4,1.51-2.11c0.11,0.13,0.22,0.26,0.33,0.38
		c-0.05,0.56-0.09,1.12-0.14,1.68c0,0,0.01-0.02,0.01-0.02C385.05,479.96,384.55,480.39,384.05,480.83z"/>
	<path class="st2" d="M391.06,460.13c0.27,0.05,0.53,0.04,0.8-0.02c-0.16,0.63-0.33,1.26-0.49,1.9
		C391.26,461.38,391.16,460.76,391.06,460.13z"/>
	<path class="st8" d="M395.84,417.89c0.28,0.8,0.55,1.61,0.83,2.41C396.39,419.5,396.11,418.69,395.84,417.89z"/>
	<path class="st8" d="M392,413c0.1-0.47,0.2-0.93,0.3-1.4c0.56,0.73,1.12,1.47,1.67,2.2C393.31,413.54,392.65,413.27,392,413z"/>
	<path class="st3" d="M320.56,443.06c-0.1,0.23-0.15,0.57-0.31,0.63c-0.16,0.06-0.43-0.16-0.65-0.25c0.1-0.22,0.14-0.56,0.3-0.63
		C320.06,442.74,320.33,442.95,320.56,443.06z"/>
	<path class="st0" d="M130.25,397.17c0.38-3.55-1.75-8.33,4.44-9.03c8.84,3.05,17.67,6.11,27.3,9.43c-3.11,1.54-5.61,2.78-8.5,4.2
		c2.52,1.57,4.83,3.02,6.94,4.33c0.95-1.12,1.9-3.24,3-3.33c3.37-0.26,2.04,2.93,1.86,4.21c-1.13,7.97,5.87,8.51,10.19,11.05
		c3.39,2,6.33,3.5,4.78,8.32c4.57-0.95-0.17-7.22,5.04-7.05c0.57,0.33,1.14,0.65,1.71,0.98c0.14,3.81,2.55,2.64,5.09,3.06
		c5.37,0.89,16.96-7.04,13.54,8.31c-5.25,3.59-12.94,5.28-11.15,14.34c-0.49,0.79-0.97,1.58-1.46,2.38l0.03-0.03
		c-0.88,0.93-1.76,1.86-2.64,2.79c-0.26,0.27-0.52,0.53-0.78,0.8c-0.88,0.64-1.76,1.28-2.64,1.93c-2.77-0.3-3.77,1.05-3.43,3.66
		c-1.19,1.46-2.38,2.91-3.57,4.37c0,0-0.01,0.01-0.01,0.01c-2.04,0.96-4.07,1.93-6.11,2.89c0.63-4.42,1.25-8.85,2.14-15.1
		c2,3.47,5.18,7.25,4.6,3.06c-0.97-6.9,10.76-7.29,5.6-14.25c-0.16-0.22-4.63,2.58-6.94,4.2c-0.83,0.58-1.21,1.81-3,4.66
		c4.43-17.51-8.72-19.24-17.59-24.51c2.14-5.97-3.14-8.22-6.13-7.4c-5.95,1.63-13.99-2.48-17.81,5.65
		c-1.76,0.89-3.51,1.78-5.27,2.67c-1.44-3.61-3.43-0.23-3.73,0.25c-1.7,2.71-2.96,5.7-4.37,8.6c-0.23-0.17-0.27-0.37-0.11-0.61
		c0.44-3.82,0.88-7.65,1.32-11.47c-0.46-0.1-0.92-0.2-1.38-0.3c-0.77,2.5-1.53,5.01-2.39,7.79c-1.12-2.95-2.06-5.43-3.01-7.92
		c-0.24-1.15-0.49-2.29-0.73-3.44c0.29-1.15,0.58-2.29,0.87-3.44c0.39-0.61,0.77-1.23,1.16-1.84c11.98,1.51,21.01-7.35,32.11-9.1
		c-3.81-0.27-7.34,1.08-10.91,1.22c-3.87,0.15-8.97,5.78-11.56-1.94c0,0,0,0,0,0c0.6-0.58,1.2-1.16,1.8-1.73
		c0.29-0.3,0.58-0.6,0.88-0.9c1.61-0.44,3.23-0.89,4.84-1.33c-0.08-0.28-0.17-0.56-0.25-0.85
		C132.77,396.89,131.51,397.03,130.25,397.17z"/>
	<path class="st3" d="M134.74,421.11c3.82-8.13,11.86-4.02,17.81-5.65c2.99-0.82,8.27,1.43,6.13,7.4c-0.01,1.76-0.02,3.53-0.03,5.29
		c-3.66,1.36-2.31,4.55-2.61,7.13c-0.02,1.16-0.04,2.33-0.06,3.49c-1.17,0.61-2.34,1.21-3.5,1.81c-0.88,1.19-1.76,2.37-2.64,3.56
		c-0.88-0.3-1.76-0.6-2.64-0.9c-0.01-0.59-0.01-1.18-0.02-1.77c2.13-4.87-0.74-7.49-4.4-9.76c-1.79-2.65-3.58-5.31-5.36-7.96
		C136.52,422.88,135.63,421.99,134.74,421.11L134.74,421.11z"/>
	<path class="st3" d="M129.42,488.48c-2.43-6.9,5.21-13.36,0.89-20.34c7.1-0.31,14.19-0.62,21.29-0.93
		c0.28,0.59,0.57,1.18,0.85,1.77c-0.58,0.58-1.16,1.16-1.74,1.74c-0.35-0.37-0.7-0.74-1.05-1.11c-0.24,0.39-0.48,0.77-0.73,1.16
		c-5.99,1.19-11.79,3-14.64,8.96c-0.95,1.98,1.38,2.98,3.49,3.5c-2.46,0.37-4.65,2.91-7.04,0.29
		C130.3,485.19,129.86,486.83,129.42,488.48z"/>
	<path class="st0" d="M150.3,461.06c-4.39-2.95-11.55,2.59-13.12-4.71c-0.61-2.82,4.64-3.65,6.76-3.04
		c3.33,0.96,6.15,3.68,9.18,5.65C152.18,459.66,151.23,460.37,150.3,461.06z"/>
	<path class="st0" d="M134.77,447.72c-2.18,6.02-11.89,0.8-12.86,8.63c-0.66-0.48-1.97-1.19-1.89-1.4c0.88-2.47,1.34-5.67,3.15-7.1
		c2.76-2.18,6.49-3.12,9.81-4.59C132.9,445.02,129.35,448.17,134.77,447.72z"/>
	<path class="st3" d="M121.37,432.63c1.41-2.9,2.67-5.89,4.37-8.6c0.3-0.48,2.29-3.86,3.73-0.25c-0.01,0.88-0.03,1.76-0.04,2.63
		c-0.59,0.59-1.19,1.17-1.78,1.76c0,0-0.01,0.01-0.01,0.01c-5.5,3.13-2.25,5.12,0.93,7.11c-2.3,2.82-4.16,6.51-8.89,4.41
		c0.46-1.95,0.92-3.89,1.38-5.84C121.16,433.45,121.27,433.04,121.37,432.63z"/>
	<path class="st3" d="M134.77,447.72c-5.42,0.45-1.87-2.7-1.79-4.46c0.89-0.89,1.77-1.77,2.66-2.66c0.6-0.87,1.21-1.75,1.81-2.62
		c0.58-0.02,1.15-0.03,1.73-0.05c1.57-0.42,3.14-0.85,4.72-1.27c-0.39,1.6-0.78,3.2-1.17,4.8c-0.02,0.29-0.03,0.57-0.04,0.86
		c-1.76,1.49-3.52,2.98-5.28,4.46C136.52,447.11,135.65,447.41,134.77,447.72z"/>
	<path class="st0" d="M147.19,443.26c0.88,0.3,1.76,0.6,2.64,0.9c0.22,0.19,0.44,0.38,0.66,0.57c2.8,2.39,4.83,5.12,3.41,9.02
		c-0.14,0.39-2.44,0.45-2.45,0.38C150.59,450.28,144.46,448.46,147.19,443.26z"/>
	<path class="st0" d="M142.72,441.47c0.39-1.6,0.78-3.2,1.17-4.8c-1.57,0.42-3.14,0.85-4.72,1.27c-0.39-2.99,0.41-5.29,3.59-6.21
		c3.66,2.27,6.53,4.89,4.4,9.76C145.69,441.48,144.2,441.48,142.72,441.47z"/>
	<path class="st3" d="M141.87,497.21c-5.63,1.37-10.03,0.27-11.94-5.89C133,495.11,139.72,491.53,141.87,497.21z"/>
	<path class="st0" d="M128.57,435.3c-3.18-2-6.43-3.98-0.93-7.11C126.53,430.74,135.95,431.92,128.57,435.3z"/>
	<path class="st5" d="M115.26,452.13c-0.31-0.9-0.63-1.79-0.94-2.69c1.34-3.13-2.07-7.84,3.22-9.66l0.41,0.02l0.39-0.12
		C117.32,443.84,116.29,447.99,115.26,452.13z"/>
	<path class="st0" d="M137.4,446.8c1.76-1.49,3.52-2.98,5.28-4.46C143.56,446.95,140.7,447.13,137.4,446.8z"/>
	<path class="st0" d="M156.03,435.29c0.3-2.59-1.05-5.78,2.61-7.13C158.1,430.65,160.42,434.2,156.03,435.29z"/>
	<path class="st5" d="M116.94,463.68c-0.56-0.32-1.13-0.64-1.69-0.97c-0.39-1.74-5.13-3.41-0.09-5.24c0.64,1.76,1.28,3.53,1.91,5.29
		C117.03,463.07,116.99,463.37,116.94,463.68z"/>
	<path class="st3" d="M128.6,467.68c-1.2-0.15-2.4-0.31-3.6-0.46c-0.88-0.62-1.76-1.23-2.64-1.85
		C125.03,464.53,126.88,465.95,128.6,467.68z"/>
	<path class="st8" d="M121.06,433.86c-0.46,1.95-0.92,3.89-1.38,5.84c-0.45,0-0.89-0.01-1.34-0.01c0,0-0.39,0.12-0.39,0.12
		l-0.41-0.02c0.79-1.65,1.57-3.3,2.36-4.95C120.28,434.51,120.67,434.19,121.06,433.86z"/>
	<path class="st0" d="M152.45,468.97c-0.28-0.59-0.57-1.18-0.85-1.77c0.74-0.4,1.48-0.79,2.22-1.19
		C153.36,467.01,152.9,467.99,152.45,468.97z"/>
	<path class="st0" d="M152.47,440.59c1.17-0.6,2.34-1.21,3.5-1.81C154.81,439.38,153.64,439.99,152.47,440.59z"/>
	<path class="st0" d="M134.74,421.11c0.89,0.88,1.78,1.77,2.67,2.65C135.49,423.91,134.6,423.03,134.74,421.11z"/>
	<path class="st0" d="M127.65,428.18c0.59-0.59,1.19-1.17,1.78-1.76C130.57,428.75,128.59,427.94,127.65,428.18z"/>
	<path class="st0" d="M137.45,437.98c-0.6,0.87-1.21,1.75-1.81,2.62C136.24,439.73,136.85,438.86,137.45,437.98z"/>
	<path class="st0" d="M148.94,470.77c0.24-0.39,0.48-0.77,0.73-1.16c0.35,0.37,0.7,0.74,1.05,1.11
		C150.12,470.73,149.53,470.75,148.94,470.77z"/>
	<path class="st0" d="M143.24,465.66c-0.23,0.09-0.51,0.29-0.67,0.22c-0.16-0.07-0.19-0.41-0.28-0.64c0.22-0.09,0.5-0.29,0.66-0.22
		C143.11,465.08,143.15,465.42,143.24,465.66z"/>
	<path class="st3" d="M116.94,463.68c0.04-0.31,0.09-0.61,0.13-0.92c0.26,0.34,0.51,0.69,0.77,1.03
		C117.55,463.76,117.25,463.72,116.94,463.68z"/>
	<path class="st4" d="M292.6,430.42c-9.07,5.14-3.77,12.68-2.19,18.67c1.49,5.65,5.83,10.52,8.77,15.81
		c1.15,2.07,0.05,3.29-2.47,3.8c1.46-3.05-0.92-4.62-2.62-5.55c-2.19-1.19-2.8,1.18-3.32,2.88c-0.31,0.11-0.62,0.22-0.93,0.32
		c-0.34-0.77-0.68-1.54-1.02-2.3c0.67-2.3,1.33-4.6,1.92-6.64c-8.94-5.2-11.1-16.55-20.62-21.41c2.34-1.71,5.11-2.66,3.45-5.41
		c-1.85-3.07-3.01,0.55-4.55,0.79c-3.44,0.53-7.68,0.22-7.14-3.95c0.68-5.29-1.85-4.76-5.06-4.55c-0.17-0.24-0.34-0.48-0.51-0.72
		c-0.1-1.25-0.2-2.5-0.29-3.75c-0.02-0.89-0.04-1.79-0.06-2.68c2.5-4.12,0.21-4.57-3.19-4.17c-2.68-1.25-5.7-3.25-8.21-0.82
		c-1.51,1.46,0.81,2.14,2.26,2.37c0.04,0.55,0.09,1.11,0.13,1.66c-1.93,2.69-3.86,5.38-5.79,8.08l-0.04,0.04
		c-6.95-0.62-14.5,1.49-20.28-4.47c-0.36-0.87,0.51-3.14-1.9-1.67c-0.56,0.04-1.12,0.07-1.68,0.11c-1.04-1.37-1.98-1.42-2.77,0.23
		c-1.74,0.19-3.49,0.39-5.23,0.58c-1.59-1.39-3.11-1.7-4.52,0.25c-2.07,0.12-4.14,0.24-6.21,0.36c-1.11-2.01-2.22-4.03-3.34-6.04
		c-0.24-0.58-0.47-1.16-0.71-1.74l-0.19,0.19c0.21-0.36,0.41-0.73,0.62-1.09c3.82-4.55-1.07-8.55-0.81-12.45
		c6.72-0.41,13.41-0.6,20.06-1.28c7.18-0.73,14.32-1.92,21.48-2.91c0,0,0.26-0.04,0.26-0.04l0.17,0.2c-0.77,5.45,2.74,8.94,6.94,9.8
		c5.62,1.16,13.08,4.98,15.88-4.72c2.65-0.96,5.3-1.91,7.94-2.87c23.83,6.43,1.9,11.92-3.96,22.14c10.51-9.44,15.96-4.51,21.72-1.7
		c-0.02,0.52-0.04,1.04-0.06,1.56c-0.96,3.28,1.14,4.97,3.42,6.57c0.42,0.81,0.84,1.62,1.27,2.42c-0.84,2.19-0.82,2.22,2.25,2.8
		C291.84,429.56,292.22,429.99,292.6,430.42z M260.07,399.9c0.29,0.17,0.5,0.31,0.73,0.4c0.05,0.02,0.28-0.24,0.25-0.29
		c-0.1-0.22-0.26-0.41-0.4-0.61C260.48,399.55,260.29,399.71,260.07,399.9z M197.5,412.76c0.1,0.04,0.2,0.07,0.3,0.11
		c0.03-0.09,0.11-0.23,0.08-0.26c-0.07-0.07-0.19-0.08-0.29-0.12C197.56,412.58,197.53,412.67,197.5,412.76z"/>
	<path class="st1" d="M290.06,491.23c-13.39,3.88-11.93-4.15-10.97-12.93c0.79-7.23,7.63-5.19,10.82-8.47
		c0.83,0.34,1.67,0.68,2.5,1.01c0.33-0.01,0.66-0.02,0.99-0.03c0.12,0.38,0.23,0.77,0.35,1.15c1.02,4.59,3.39,7.67,8.54,7.65
		c0.7,0.74,1.39,1.48,2.09,2.23c-0.31,2.12,0.51,3.09,2.71,2.66c0,0,0.08,0.06,0.08,0.06c-0.59,2.1,0.61,2.74,2.38,2.91
		c1.14,0.61,2.29,1.21,3.43,1.82c0.48,0.49,0.95,0.97,1.43,1.46c-1.43,0.44-2.88,1.28-4.3,1.25
		C303.41,491.88,296.74,491.51,290.06,491.23z"/>
	<path class="st8" d="M289.22,426.33c-0.42-0.81-0.84-1.62-1.27-2.42c-0.21-1.98-0.42-3.96-0.63-5.94c2.34-0.19,4.68-0.37,7.03-0.56
		c2.01,0.24,4.01,0.48,6.02,0.72c0.56,7.66,1.13,15.31,1.69,22.97c-3.15-3.56-6.31-7.12-9.46-10.68c-0.38-0.43-0.75-0.86-1.13-1.29
		C290.71,428.2,289.97,427.27,289.22,426.33z"/>
	<path class="st8" d="M302.29,479.62c-5.15,0.02-7.52-3.06-8.54-7.65c0.15-0.29,0.38-0.38,0.69-0.25c1.4,1.21,2.8,2.41,4.19,3.62
		C299.85,476.76,301.07,478.19,302.29,479.62z"/>
	<path class="st9" d="M298.63,475.33c-1.4-1.21-2.8-2.41-4.19-3.62C296.93,471.64,298.3,472.89,298.63,475.33z"/>
	<path class="st9" d="M293.4,470.81c-0.33,0.01-0.66,0.02-0.99,0.03c-0.86-1.49-1.72-2.99-2.57-4.48c0.31-0.11,0.62-0.21,0.93-0.32
		C291.64,467.63,292.52,469.22,293.4,470.81z"/>
	<path class="st9" d="M312.97,489.29c-1.14-0.61-2.29-1.21-3.43-1.82c-0.04-0.56-0.09-1.11-0.13-1.67
		C310.6,486.97,311.78,488.13,312.97,489.29z"/>
	<path class="st8" d="M307.09,484.5c-2.2,0.44-3.02-0.53-2.71-2.66C305.28,482.73,306.18,483.62,307.09,484.5z"/>
	<path class="st8" d="M309.41,485.81c0.04,0.56,0.09,1.11,0.13,1.67c-1.77-0.17-2.97-0.81-2.38-2.91
		C307.91,484.98,308.66,485.39,309.41,485.81z"/>
	<path class="st8" d="M319.52,460.38c0.73,0.56,1.47,1.12,2.2,1.68C320.99,461.51,320.25,460.95,319.52,460.38z"/>
	<path class="st0" d="M277.6,463.66c-2.66,3.83-7.43,6.16-8.07,11.41c-2.08,1.81-4.15,3.61-6.23,5.42
		c-0.58-0.29-1.16-0.57-1.74-0.86c-0.7-6.27-1.39-12.53-2.09-18.83c-1.45,0.29-2.68,0.54-3.91,0.79c0.91-2.42,1.82-5.2-1.07-6.55
		c-1.48-0.69-4.14-0.3-5.57,0.65c-2.73,1.81-2.05,4.5-0.4,6.94c-3.68,0.62-7.36,1.23-11.04,1.85c9.17-0.63,6.21-7.89,4.08-10.57
		c-3.39-4.27-8.67-2.56-12.77,0.9c1.02-4.6,2.03-9.21,3.05-13.81c-0.03-0.48-0.06-0.96-0.09-1.44c0.19,0.16,0.4,0.23,0.65,0.23
		c0.38-0.81,0.77-1.63,1.15-2.44c-0.06-0.22,0.03-0.35,0.25-0.39c5.58-6,9.33-5.03,10.87,5.97c0.79-4.36,1.03-5.71,1.3-7.19
		c2.67,0.86,4.39,4.65,7.59,1.82c0.3-0.44,0.6-0.88,0.9-1.32c0,0,0.03-0.01,0.03-0.01c0.61,0,1.21,0,1.82,0
		c0.66-0.06,1.33-0.11,1.99-0.17c0.23,0.27,0.45,0.54,0.68,0.8c-1.21,11.23,9.53,13.45,14.89,19.72
		C275.11,458.94,276.36,461.3,277.6,463.66z M236.63,438.4c-0.13,0.19-0.26,0.37-0.39,0.56c0.21,0.09,0.42,0.21,0.64,0.26
		c0.04,0.01,0.23-0.24,0.2-0.29C236.97,438.74,236.81,438.57,236.63,438.4z"/>
	<path class="st0" d="M226.94,457.41c-0.47,5.78,2.66,10.35,6.31,13.88c1.15,1.12,5.86-1.82,9.03-2.26
		c1.76-0.25,4.36,0.26,5.41,1.46c1.26,1.45,0.6,3.38-1.31,5.16c-4.94,4.6,3.11,4.41,3.08,7.36c0.01,2.26,0.02,4.52,0.03,6.78
		c-5.44-0.54-7.39,7.43-13.36,5.5c-1.92-0.62-3.76-1.5-5.63-2.26c0.24-3.6,1.82-7.83,0.47-10.66c-3.35-6.98-3.49,2.09-5.82,1.67
		c-4.37-4.6,1.19-8.44,1.07-12.81c-0.14-5.02-1.09-8.82-6.41-10.28C221.47,458.37,223.29,456.04,226.94,457.41z"/>
	<path class="st8" d="M226.94,457.41c-3.65-1.37-5.47,0.96-7.16,3.55c-2.03,0.91-4.06,1.82-6.08,2.74c-0.2-0.19-0.4-0.39-0.6-0.58
		c2.71-3.3,5.42-6.61,8.12-9.91c1.31-1.56,2.63-3.11,3.94-4.67c0.62,0.92,1.24,1.84,1.85,2.76c-0.15,0.08-0.29,0.17-0.44,0.25
		c0.08,0,0.19,0.02,0.23-0.02c0.07-0.08,0.1-0.2,0.15-0.3c1.63-3.41,3.26-6.82,4.89-10.23c-1.02,4.6-2.03,9.21-3.05,13.81
		C228.18,455.68,227.56,456.54,226.94,457.41z"/>
	<path class="st5" d="M248.52,462.64c-1.65-2.43-2.33-5.13,0.4-6.94c1.43-0.95,4.09-1.34,5.57-0.65c2.9,1.35,1.99,4.13,1.07,6.55
		c-1,0.53-2,1.06-3,1.59c-0.84,0.04-1.67,0.09-2.51,0.13C249.54,463.09,249.03,462.86,248.52,462.64z"/>
	<path class="st5" d="M249.48,489.8c-0.01-2.26-0.02-4.52-0.03-6.78c2.71-1.57,5.32-1.2,7.86,0.43c0.29,1.09,0.58,2.18,0.88,3.27
		c-1.55,1.42-3.11,2.83-4.66,4.25c-1.35-0.38-2.7-0.75-4.05-1.13L249.48,489.8z"/>
	<path class="st3" d="M225.13,484.05c2.33,0.41,2.47-8.65,5.82-1.67c1.36,2.83-0.22,7.06-0.47,10.66c-0.59,0-1.18-0.01-1.77-0.01
		c-1.18-0.93-2.36-1.85-3.54-2.78C225.16,488.18,225.15,486.12,225.13,484.05z"/>
	<path class="st5" d="M198.04,477.56c-1.64,0.99-3.28,1.97-4.92,2.96c-1.38-0.74-2.76-1.48-6.82-3.67c4.61,0.59,6.71,1.7,7.18-0.98
		c5.28,1.96,3.91-9.61,10.43-5.12c-1.14,1.5-2.27,3.01-3.41,4.51c-0.32,0.28-0.63,0.56-0.95,0.84c-0.42,0.4-0.84,0.8-1.25,1.2
		C198.29,477.29,198.04,477.56,198.04,477.56z"/>
	<path class="st8" d="M200.49,475.25c1.14-1.5,2.27-3.01,3.41-4.51c0.62-0.51,1.25-1.03,1.87-1.54c2.44-2.03,4.88-4.06,7.32-6.09
		c0.2,0.19,0.4,0.39,0.6,0.58C210.54,468.97,207.52,474.4,200.49,475.25z"/>
	<path class="st8" d="M186.14,499.02c0-0.3,0.01-0.6,0.01-0.89c2.06-1.8,4.24-3.14,7.09-1.75
		C190.88,497.26,188.51,498.14,186.14,499.02z"/>
	<path class="st8" d="M226.14,497.08c-2.1-0.49-4.2-0.97-6.29-1.46C222.32,494.49,224.39,495.13,226.14,497.08z"/>
	<path class="st0" d="M249.48,489.84c1.35,0.38,2.7,0.75,4.05,1.13c-0.92,0.62-1.83,1.23-2.75,1.85
		C250.35,491.82,249.91,490.83,249.48,489.84z"/>
	<path class="st8" d="M206.55,494.65c-1.8,0.21-3.6,0.42-5.4,0.64C202.73,493.12,204.61,493.64,206.55,494.65z"/>
	<path class="st0" d="M250.05,463.32c0.84-0.04,1.67-0.09,2.51-0.13c-0.46,1.45-0.91,2.9-2.18,6.93
		C250.18,466.12,250.12,464.72,250.05,463.32z"/>
	<path class="st0" d="M225.18,490.25c1.18,0.93,2.36,1.85,3.54,2.78C225.9,494.18,225.34,492.46,225.18,490.25z"/>
	<path class="st0" d="M258.19,486.72c-0.29-1.09-0.58-2.18-0.88-3.27c0.76,0.38,1.52,0.76,2.28,1.13
		C259.13,485.29,258.66,486,258.19,486.72z"/>
	<path class="st8" d="M198.58,495.58c-1.22,0.16-2.44,0.32-3.66,0.48C195.95,494.43,197.18,494.32,198.58,495.58z"/>
	<path class="st7" d="M198.29,477.29c0.42-0.4,0.84-0.8,1.25-1.2C199.13,476.49,198.71,476.89,198.29,477.29z"/>
	<path class="st8" d="M217.32,495.06c-0.64-0.1-1.27-0.21-1.91-0.31C216.05,494.86,216.69,494.96,217.32,495.06z"/>
	<path class="st4" d="M119.9,434.84c-0.79,1.65-1.57,3.3-2.36,4.95c-5.29,1.82-1.88,6.53-3.22,9.66
		c-7.83,2.88-7.02,11.55-11.12,17.07c-6.52,8.8-10.39,19.53-18.46,27.41c-1.27,1.24-2.81,2.4-4.59,0.6
		c-2.04-2.06,0.13-2.82,1.09-4.21c6.6-9.51,13.24-19,19.46-28.76c3.3-5.18-5.34-1.89-5.46-7.27c-0.15-6.61,2.07-11.73,5.59-15.69
		c3.63-4.08,0.3-8.61,2.89-12.18h0c1.69,1.53,1.54,1.42,5.22-3.72c1.65-2.3,4.07-4.03,6.14-6.03c0.24,1.15,0.49,2.29,0.73,3.44
		c-0.03,1.17-0.06,2.34-0.09,3.5c-1.55,0.85-1.3,1.47,0.25,1.92c0.65,2.09,1.29,4.17,1.94,6.26
		C118.57,432.81,119.23,433.83,119.9,434.84z"/>
	<path class="st8" d="M117.1,411.4c-0.39,0.61-0.77,1.23-1.16,1.84c0.1-2.07,0.2-4.14,0.3-6.21c0.5-0.13,1-0.26,1.5-0.38
		C117.53,408.22,117.32,409.81,117.1,411.4z"/>
	<path class="st4" d="M103.72,426.42c0.06-0.1,0.12-0.21,0.18-0.31C103.84,426.21,103.78,426.31,103.72,426.42
		C103.72,426.42,103.72,426.42,103.72,426.42z"/>
	<polygon class="st8" points="323.31,459.32 322.97,459.32 323.14,458.96 	"/>
	<path class="st1" d="M263.3,480.5c2.08-1.81,4.15-3.61,6.23-5.42c0.86,0,1.73-0.01,2.59-0.01c0.92,0.31,1.83,0.63,2.75,0.94
		c1.3,6.48,5.79,15.16-2.47,18.29C253.18,501.58,267.95,484.2,263.3,480.5z"/>
	<path class="st8" d="M277.6,463.66c-1.25-2.36-2.49-4.73-3.74-7.09c1.12-0.63,2.24-1.26,3.36-1.89c1.32,3.93,0.36,10.84,8.19,6.29
		c1.13,1.03,2.27,2.06,3.4,3.08c0.34,0.77,0.68,1.54,1.02,2.3c0.86,1.49,1.72,2.99,2.57,4.48c-0.83-0.34-1.67-0.67-2.5-1.01
		C288.45,462.51,281.41,466.3,277.6,463.66z"/>
	<path class="st0" d="M274.87,476c-0.92-0.31-1.83-0.62-2.75-0.94c0.42-0.43,0.83-0.87,1.25-1.3
		C273.88,474.51,274.37,475.26,274.87,476z"/>
	<path class="st2" d="M385.53,479.55c0.05-0.56,0.09-1.12,0.14-1.68c0.23-0.07,0.47-0.1,0.72-0.09
		C387.87,479.22,386.72,479.39,385.53,479.55z"/>
	<path class="st2" d="M205.77,469.2c-0.62,0.51-1.25,1.03-1.87,1.54c-6.52-4.49-5.15,7.09-10.43,5.12
		c-0.47,2.68-2.57,1.57-7.18,0.98c4.07,2.18,5.45,2.92,6.82,3.67c-6.13,5.92-12.26,11.83-18.4,17.75c-1.53-0.45-3.05-0.9-4.96-1.46
		c5.05-4.1-0.84-9.32,1.58-13.8c0.04-0.08-1.23-0.86-1.9-1.32c-0.33,0.9-0.92,1.8-0.95,2.71c-0.11,3.35-0.05,6.7-0.05,10.61
		c-3.28-8.45-0.64-16.54,2.87-22.49c1.88-3.19,9.74-3.32,8.66-10.59l0.01-0.01c6.82,0.17,7.89-5.22,9.65-9.95
		c0.26-0.27,0.52-0.53,0.78-0.8c1.32,1.07,2.65,2.13,4.49,3.61c-0.77-2.67-1.31-4.54-1.85-6.41c0,0-0.03,0.03-0.03,0.03
		c6.73-2.06,11.22-6.19,12.35-13.41l0.23,0.29c0,0-0.25-0.28-0.25-0.28c0.72-0.74,1.44-1.49,2.16-2.23c0,0,0.08-0.07,0.08-0.07
		c0.84-0.91,1.68-1.81,2.52-2.72c0.53-0.62,1.07-1.24,1.6-1.85c0.59-0.72,1.17-1.45,1.76-2.17c1.4-2.01,2.8-4.01,4.19-6.02
		c0.59-0.48,1.18-0.96,1.77-1.44c0.47-0.02,0.94-0.04,1.41-0.06c5.78,5.95,13.33,3.85,20.28,4.47c0.12,0.05,0.23,0.1,0.35,0.16
		c-0.1-0.07-0.2-0.13-0.31-0.2c1.93-2.69,3.86-5.38,5.79-8.08c0.34,2.44,0.69,4.87,1.03,7.31c-0.55,0.8-1.11,1.61-1.66,2.41
		c-0.97,0.82-1.93,1.64-2.9,2.46c-4.27,2.3-8.4,4.74-9.61,9.98c-0.23,0.04-0.31,0.17-0.25,0.4c-0.38,0.81-0.77,1.63-1.15,2.44
		c-0.24,0.01-0.46-0.07-0.65-0.23c-4.88,1.02-5.22,5.37-6.59,8.97c-1.31,1.56-2.63,3.11-3.94,4.67
		C216.23,458.69,206.37,459.48,205.77,469.2z M221.05,444.23c0.31,0.17,0.52,0.32,0.75,0.41c0.05,0.02,0.28-0.24,0.26-0.3
		c-0.1-0.22-0.26-0.42-0.4-0.62C221.47,443.88,221.28,444.04,221.05,444.23z"/>
	<path class="st10" d="M274.96,252.1c15.03,7.08,11.23-10.63,18.35-14.03c1.16-0.55,1.81-2.15,2.7-3.27
		c-1.38,7.96-7.61,13.09-11.43,19.63c-2.38,1.31-5.64,2.04-6.98,4.04c-3.22,4.83-0.05,7.63,4.55,7.87
		c7.56,0.39,15.16-0.03,22.75-0.21c7.77-0.19,16.57-1.79,20.38,7.19c2.57,6.05,2.09,12.27-5.16,16.69
		c-16.08,9.81-32.27,7.29-49.06,2.62c-10.44-2.9-20.5-9.45-31.94-6.17c-10,2.87-19.71,6.76-29.53,10.26
		c-4.25,1.51-10.03-1.32-12.76,4.49c-0.42,0.03-0.84,0.06-1.25,0.09c-0.22-0.19-0.44-0.37-0.66-0.56c1.34-6.64-3.77-3.87-6.55-4.49
		c-10.01-6.14-14.37-15.69-16.22-26.78c9.77-4.75,20.27-5.8,30.91-7.23c9.39-1.26,18.4-5.3,27.58-8.11
		c5.14,6.42,10.73,12.29,18.49,15.61c1.17,2.46,3.16,3.04,5.27,1.62c1.36-0.91,1.15-2.26-0.77-2.7c-1.38-4.11-2.76-8.22-4.15-12.33
		c0.48-0.06,0.95-0.11,1.43-0.17l0.43,0.02l0.43,0c3.91,3.89,9.03,3.14,15.42,4.29c-3.09-3.98-5.27-6.79-7.45-9.6
		c0.65-2.06-3.6-2.97-1.28-5.43c0.7,0.92,1.41,1.85,2.11,2.77c2.73,6.04,7.57,10.04,13.19,13.97
		C274.21,258.47,274.59,255.29,274.96,252.1z"/>
	<path class="st0" d="M196.85,301.2c2.74-5.8,8.51-2.97,12.76-4.49c9.82-3.49,19.52-7.39,29.53-10.26
		c11.44-3.28,21.5,3.27,31.94,6.17c16.79,4.67,32.98,7.19,49.06-2.62c7.25-4.42,7.73-10.64,5.16-16.69
		c-3.81-8.98-12.61-7.38-20.38-7.19c-7.58,0.18-15.19,0.6-22.75,0.21c-4.61-0.24-7.78-3.04-4.55-7.87c1.34-2.01,4.59-2.73,6.98-4.04
		c5.31,3.83,11.79,2.63,16.84,1.35c7.14-1.81,15.38,3.65,21.44-3.44c0.57,0.39,1.13,0.78,1.7,1.17c0.83,0.93,1.66,1.86,2.48,2.78
		c0,0-0.01-0.02-0.01-0.02c2.38,2.36,4.76,4.71,7.13,7.07c0,0-0.01,0-0.01,0c0.92,0.83,1.84,1.66,2.76,2.5c0,0,0.07,0.06,0.07,0.06
		c0.8,0.66,1.6,1.33,2.4,1.99c0,0-0.02-0.01-0.02-0.01c0.65,0.51,1.3,1.03,1.96,1.54c1.2,0.9,2.4,1.81,3.6,2.71
		c-1.06,9.42-7.78,15.07-14.16,20.84c-3.01,2.73-6.51,4.92-9.79,7.36c-19.28,11.64-38.66,9.54-58.31,0.84
		c-15.61-6.92-30.93-5.45-45.87,2.55c-8.11,4.34-16.38,5.29-24.45-0.34c0.88-0.09,1.76-0.19,2.64-0.28c0.59,0.1,1.19,0.2,1.78,0.31
		C196.81,302.67,196.83,301.93,196.85,301.2z"/>
	<path class="st1" d="M230.65,254.13c-9.18,2.81-18.19,6.86-27.58,8.11c-10.64,1.42-21.14,2.47-30.91,7.23
		c-0.13-1.14-0.26-2.27-0.39-3.41c1.41-1.14,1.5-2.09-0.38-2.78c-0.15-3.26-0.3-6.51-0.45-9.77c-0.39-6.49,4.33-9.59,8.6-13
		l0.31-0.01l0.09-0.3c2.02-1.78,4.04-3.56,6.06-5.33c6.75-6.54,13.5-13.08,20.25-19.62c0.68-0.84,1.37-1.67,2.05-2.51
		c0.11-0.4,0.22-0.81,0.32-1.21c0.55-0.74,1.11-1.47,1.66-2.21c1.3-1.74,2.6-3.49,3.89-5.23c0.34-0.11,0.68-0.22,1.02-0.33
		c0.51-0.72,1.01-1.44,1.52-2.16c0.01-0.23,0.13-0.37,0.36-0.42c0.61-0.88,1.22-1.77,1.83-2.65c0,0-0.01,0.01-0.01,0.01
		c1.36-0.28,2.71-0.56,4.07-0.84c-0.25,3.82-0.49,7.63-0.74,11.45c-2.26,4.77-2.16,9.55-0.09,14.35c0.17,2.32,0.34,4.65,0.51,6.97
		c-0.75,1.35-1.64,2.72,0.53,3.64c0.11,0.56,0.22,1.12,0.33,1.69c0.16,0.63,0.31,1.25,0.47,1.88c0.13,0.56,0.26,1.12,0.39,1.68
		c-1.04,2.01-0.35,3.45,1.49,4.5c0.69,1.74,1.39,3.48,2.08,5.22c-1.5,2.29-0.18,3.1,1.85,3.53c0.25,0,0.5,0.02,0.75,0.06
		C230.58,253.15,230.62,253.64,230.65,254.13z"/>
	<path class="st1" d="M322.87,252.34c-6.06,7.09-14.3,1.63-21.44,3.44c-5.06,1.28-11.53,2.48-16.84-1.35
		c3.82-6.54,10.05-11.67,11.43-19.63c1.54-5.56,3.08-11.12,4.62-16.69c5.79-0.2,2.78,6.96,6.86,8.2c0.97,1.98,1.94,3.95,2.9,5.93
		c1.08,1.91,2.15,3.82,3.23,5.73c0.44,0.74,0.88,1.48,1.32,2.23c1.04,1.61,2.08,3.23,3.12,4.84c-0.07,0.3,0.05,0.46,0.36,0.49
		c0.5,0.68,1,1.35,1.49,2.03c0.36,0.5,0.73,1.01,1.09,1.51c0.52,0.67,1.05,1.35,1.57,2.02
		C322.68,251.51,322.78,251.92,322.87,252.34z"/>
	<path class="st1" d="M258.46,245.46c-2.32,2.46,1.93,3.36,1.28,5.43c-3.39,0.12-7.02-0.88-9.84,2.02
		c-0.48-0.39-0.95-0.78-1.43-1.17c-0.08-0.58-0.16-1.16-0.24-1.74c1.24-1.2,0.94-2.1-0.56-2.74c-0.14-1.15-0.28-2.29-0.42-3.44
		c1.23-1.67,1.48-3.25-0.48-4.59c-0.2-0.05-0.35,0.01-0.45,0.19c-0.03-1.48-0.06-2.96-0.08-4.44c0.53-4,1.06-8.01,1.6-12.07
		c2.88,6.53,5.65,12.83,8.43,19.13C257.01,243.18,257.74,244.32,258.46,245.46z"/>
	<path class="st5" d="M321,300.33c3.28-2.44,6.78-4.63,9.79-7.36c6.37-5.77,13.09-11.42,14.16-20.84c2.4,2.48,0.39,8.15-5.78,14.88
		c-2.44,2.66-5.56,4.69-9.01,7.54c3.1,1.05,4.41,1.49,5.72,1.93c-0.82,1.46-1.57,2.96-2.47,4.38c-1.06,1.67-4.41,2.55-1.76,5.41
		c-1.31-0.37-2.62-0.74-3.93-1.11c0.55-1.16,1.1-2.32,1.89-3.98C326.71,300.89,323.85,300.61,321,300.33z"/>
	<path class="st4" d="M247.26,243.82c0.14,1.15,0.28,2.29,0.42,3.44c-0.09,0.91-0.19,1.81-0.28,2.72
		c-5.14,3.87-10.89,3.96-16.85,2.68c-0.25-0.05-0.5-0.07-0.75-0.06c-0.37-1.23-0.74-2.46-1.11-3.69c5.1-4.55,11.74-3.75,17.76-5.09
		c0,0,0.41,0.06,0.41,0.06S247.26,243.82,247.26,243.82z"/>
	<path class="st5" d="M217.09,201.18c-0.23,0.05-0.35,0.19-0.36,0.42c-0.51,0.72-1.01,1.44-1.52,2.16
		c-0.34,0.11-0.68,0.22-1.02,0.33c-1.11-0.38-2.22-0.77-3.33-1.15c2.93-4.14,5.96-8.21,8.77-12.43c2.84-4.25,3.13-7.43,1.11-8.8
		c0.02-0.57,0.04-1.14,0.07-1.7c1.6-2.56,3.19-5.12,5.75-9.22c0.18,3.29,0.27,4.89,0.35,6.48c-2.35,5.24-6.12,10.22-2.99,16.46
		c-3.95-0.77-3.62,2.91-5,4.81c0,0,0.01-0.01,0.01-0.01C218.31,199.41,217.7,200.3,217.09,201.18z"/>
	<path class="st4" d="M274.96,252.1c-0.38,3.19-0.76,6.38-1.2,10.11c-5.62-3.94-10.45-7.93-13.19-13.97
		C266.44,245.54,270.03,251.33,274.96,252.1z"/>
	<path class="st8" d="M256.28,242.04c-2.77-6.3-5.55-12.6-8.43-19.13c-0.54,4.06-1.07,8.06-1.6,12.07c-0.29,0.07-0.58,0.07-0.87,0
		c0.38-6.47,0.75-12.94,1.35-23.31C250.75,224.42,253.52,233.23,256.28,242.04z"/>
	<path class="st5" d="M307.49,226.31c-4.07-1.24-1.07-8.4-6.86-8.2c0.25-1.35,0.5-2.7,0.75-4.05c1.1,1.22,2.58,2.26,3.22,3.69
		C305.82,220.49,306.56,223.45,307.49,226.31z"/>
	<path class="st8" d="M222.15,223.49c-2.07-4.8-2.16-9.58,0.09-14.35C222.21,213.93,222.18,218.71,222.15,223.49z"/>
	<path class="st5" d="M334.18,263.34c-2.38-2.36-4.76-4.71-7.13-7.07C330.56,257.48,332.87,259.91,334.18,263.34z"/>
	<path class="st8" d="M218.91,198.54c1.38-1.91,1.05-5.58,5-4.81c-0.31,1.33-0.62,2.65-0.93,3.98
		C221.63,197.98,220.27,198.26,218.91,198.54z"/>
	<path class="st5" d="M313.62,237.98c-1.08-1.91-2.15-3.82-3.23-5.73C312.94,233.33,313.48,235.54,313.62,237.98z"/>
	<path class="st5" d="M318.07,245.04c-1.04-1.61-2.08-3.23-3.12-4.84C317.43,240.89,318.05,242.77,318.07,245.04z"/>
	<path class="st10" d="M228.69,248.91c0.37,1.23,0.74,2.46,1.11,3.69c-2.03-0.43-3.36-1.24-1.85-3.53
		C228.19,249.01,228.44,248.96,228.69,248.91z"/>
	<path class="st8" d="M247.26,243.82l-0.41,0.07c0,0-0.41-0.06-0.41-0.06c0.11-1.53,0.23-3.06,0.34-4.59
		C248.74,240.57,248.49,242.14,247.26,243.82z"/>
	<path class="st5" d="M245.38,234.98c0.29,0.07,0.58,0.06,0.87,0c0.03,1.48,0.06,2.96,0.08,4.44
		C243.58,238.46,244.31,236.76,245.38,234.98z"/>
	<path class="st8" d="M225.87,243.85c-1.84-1.06-2.53-2.5-1.49-4.5C224.87,240.85,225.37,242.35,225.87,243.85z"/>
	<path class="st5" d="M336.94,265.83c-0.92-0.83-1.84-1.66-2.76-2.5C335.09,264.17,336.02,265,336.94,265.83z"/>
	<path class="st8" d="M223.19,234.1c-2.17-0.92-1.28-2.29-0.53-3.64C222.84,231.68,223.01,232.89,223.19,234.1z"/>
	<path class="st5" d="M327.06,256.29c-0.83-0.93-1.66-1.86-2.48-2.78C325.4,254.43,326.23,255.36,327.06,256.29z"/>
	<path class="st5" d="M339.4,267.89c-0.8-0.66-1.6-1.33-2.4-1.99C337.8,266.56,338.6,267.22,339.4,267.89z"/>
	<path class="st0" d="M333.48,308.56c-0.35-0.53-0.69-1.07-1.04-1.6c0.57,0.13,1.15,0.27,1.72,0.4
		C333.93,307.76,333.7,308.16,333.48,308.56z"/>
	<path class="st5" d="M322.58,251.1c-0.52-0.67-1.05-1.35-1.57-2.02C321.54,249.75,322.06,250.43,322.58,251.1z"/>
	<path class="st5" d="M319.92,247.56c-0.5-0.68-1-1.35-1.49-2.03C318.92,246.21,319.42,246.89,319.92,247.56z"/>
	<path class="st8" d="M223.99,237.67c-0.16-0.63-0.31-1.25-0.47-1.88C223.67,236.42,223.83,237.04,223.99,237.67z"/>
	<path class="st5" d="M341.34,269.42c-0.65-0.51-1.3-1.03-1.96-1.54C340.04,268.39,340.69,268.9,341.34,269.42z"/>
	<path class="st5" d="M171.77,266.06c0.13,1.14,0.26,2.27,0.39,3.41c1.85,11.08,6.21,20.64,16.22,26.78
		c2.18,1.5,4.37,2.99,6.55,4.49c0.22,0.19,0.44,0.37,0.66,0.56c-0.2,0.6-0.39,1.2-0.59,1.8c-0.88,0.09-1.76,0.19-2.64,0.28
		c-0.58-0.05-1.17-0.09-1.75-0.14c-1.22-0.21-2.43-0.41-3.65-0.62c-3.22-0.1-6.03-3.59-9.56-1.18c-2.44-4.67-4.67-9.46-7.37-13.97
		c-4.45-7.45-3.96-14.51,0.88-21.49C171.21,266.01,171.49,266.03,171.77,266.06z"/>
	<path class="st8" d="M220.73,181.71c2.02,1.37,1.73,4.55-1.11,8.8c-2.81,4.22-5.84,8.29-8.77,12.43c-1.02,0.29-2.05,0.57-3.11,0.87
		C212.02,196.54,216.38,189.12,220.73,181.71z"/>
	<path class="st5" d="M179.55,240.51c-4.27,3.41-8.99,6.51-8.6,13C167.56,245.04,173.3,242.61,179.55,240.51z"/>
	<path class="st5" d="M186.01,234.86c-2.02,1.78-4.04,3.56-6.06,5.33C180.99,237.3,182.71,235.18,186.01,234.86z"/>
	<path class="st4" d="M123.73,208.88c0.8-0.09,1.6-0.18,2.4-0.27c0.04,0.31,0.07,0.62,0.11,0.93c-0.8,0.09-1.6,0.18-2.4,0.26
		C123.8,209.5,123.77,209.19,123.73,208.88z"/>
	<path class="st5" d="M166.2,302.33c-0.52-0.39-1.04-0.79-1.55-1.18c0.66-0.31,1.32-0.63,1.99-0.94
		C166.49,300.92,166.35,301.63,166.2,302.33z"/>
	<path class="st8" d="M166.2,302.33c0.14-0.71,0.29-1.41,0.43-2.12c0.79,0.45,1.59,0.9,2.38,1.35c-0.52,0.89-1.05,1.79-1.57,2.68
		C167.03,303.6,166.62,302.97,166.2,302.33z"/>
	<path class="st10" d="M171.77,266.06c-0.28-0.03-0.57-0.06-0.85-0.08c0.16-0.9,0.32-1.81,0.47-2.71
		C173.27,263.97,173.18,264.92,171.77,266.06z"/>
	<path class="st8" d="M208.31,212.74c-0.68,0.84-1.37,1.67-2.05,2.51C206.95,214.41,207.63,213.57,208.31,212.74z"/>
	<path class="st5" d="M168.67,308.09c0.45,0.74,0.91,1.49,1.36,2.23C169.58,309.57,169.13,308.83,168.67,308.09z"/>
	<path class="st5" d="M210.3,209.32c-0.55,0.74-1.11,1.47-1.66,2.21C209.19,210.79,209.74,210.05,210.3,209.32z"/>
	<path class="st9" d="M137.19,140.12c-5.99-18.41,1.01-35.69,4.61-53.26c0,0,0.01-0.02,0.01-0.02c2.1-0.07,4.19-0.13,6.28-0.2
		c0.53,1.01,1.06,2.01,1.58,3.02c-5.51,0.31-8.59,2.46-8.76,8.74c-0.17,6.23-1.24,12.53-2.7,18.62
		c-3.24,13.49,5.28,25.19,5.49,38.25c0.07,4.19,7.44,6.13,10.47,4.15c4.07-2.67,6.71-7.73,5.61-13.8c-0.57-3.16-4.72-6.79,0.1-10
		c1.85,7.1,8.48,12.92,5.74,21.26c-0.08,0.18-0.1,0.38-0.05,0.57c-2.58,2.78-5.17,5.56-7.75,8.33c-0.57,0.45-1.14,0.91-1.72,1.36
		c-12.88,0.67-16.5-6.6-16.6-18.1c-0.02-2.52,2.76-7.04-2.2-8.77L137.19,140.12z"/>
	<path class="st5" d="M137.32,140.27c4.96,1.73,2.18,6.25,2.2,8.77c0.1,11.49,3.72,18.77,16.6,18.1c-2.17,4.35-5.87,6.37-10.47,5.61
		c-4.24-0.7-3.4-4.62-4.03-7.73c-0.4-1.95-2.24-3.62-3.43-5.41C137.9,153.17,137.61,146.72,137.32,140.27z"/>
	<path class="st2" d="M157.84,165.78c2.58-2.78,5.17-5.55,7.75-8.33C165.25,162.3,162.18,164.63,157.84,165.78z"/>
	<path class="st2" d="M128.65,166.7c0-0.61,0-1.23,0.01-1.85c0.41,0.31,0.82,0.62,1.23,0.93
		C129.47,166.09,129.06,166.4,128.65,166.7z"/>
	<path class="st8" d="M186.97,302.62c1.22,0.21,2.43,0.41,3.65,0.62c0,0.31,0.01,0.61,0.01,0.92c-0.59-0.04-1.18-0.09-1.77-0.13
		C188.22,303.56,187.6,303.09,186.97,302.62z"/>
	<path class="st0" d="M188.85,304.03c0.59,0.04,1.18,0.09,1.77,0.13c-0.32,0.41-0.64,0.82-0.96,1.23
		C189.39,304.93,189.12,304.48,188.85,304.03z"/>
	<path class="st2" d="M300.36,418.13c-2.01-0.24-4.01-0.48-6.02-0.72c-0.78-15.32-6.94,1.58-9.75-1.63
		c-5.76-2.81-11.22-7.75-21.72,1.7c5.86-10.22,27.8-15.7,3.96-22.14c0.94-0.71,1.89-1.42,2.83-2.13c4.67-0.15,9.34-0.29,14.01-0.44
		c3.61,3.22,7.2,3.68,10.76-0.08c0.34-0.02,0.68-0.04,1.02-0.06c2.04,3.31,4.09,6.61,6.13,9.92c0.1,0.62,0.2,1.24,0.3,1.86
		c-0.14,1.15-0.27,2.3-0.41,3.45c-0.13,1.81-0.26,3.62-0.39,5.43C300.86,414.9,300.61,416.51,300.36,418.13z"/>
	<path class="st9" d="M269.67,393.21c-0.94,0.71-1.89,1.42-2.83,2.13c-2.65,0.96-5.3,1.91-7.94,2.87
		c-5.3-0.78-11.12,1.74-15.89-2.48c-0.03-0.39-0.06-0.78-0.09-1.17c5.9-1.57,13.73-1.73,8.34-11.49c0.13-2.58,1.03-4.82,3.62-5.63
		c0.62-0.19,1.73,1.17,2.61,1.83c-0.06,0.92-0.12,1.83-0.19,2.75c-0.61,2.62,0.91,3.99,2.96,5.06
		C260.74,393.2,264.28,394.63,269.67,393.21z"/>
	<path class="st0" d="M257.3,382.01c0.06-0.92,0.12-1.83,0.19-2.75c0.1-4.94,3.81-5.61,7.47-7.19c4.86-2.09,2.68,4.01,5.41,3.84
		c0,0-0.02-0.03-0.02-0.03c0.59,0.93,1.18,1.85,1.76,2.78c0.57,3.39-1.78,4.57-4.25,5.7c-3.99-7.7-4.58-7.87-8.16-2.4
		C258.91,381.99,258.11,382,257.3,382.01z"/>
	<path class="st0" d="M282.01,387.38c-5.03,0.26-5.46-2.87-5.7-5.16c-0.26-2.53,0.87-5.36,4.32-4.46c2.5,0.65,4.75,2.23,7.11,3.4
		C285.62,383.46,283.5,385.76,282.01,387.38z"/>
	<path class="st7" d="M301.9,404.4c-0.1-0.62-0.2-1.24-0.3-1.86c0.54-3.56,1.07-7.12,1.61-10.68c7.21-1.07-2.97,9.82,4.13,7.86
		C304.69,398.82,306.81,406.76,301.9,404.4z"/>
	<path class="st5" d="M303.21,391.86c-0.54,3.56-1.07,7.12-1.61,10.68c-2.04-3.31-4.09-6.61-6.13-9.92c0.2-0.26,0.4-0.53,0.6-0.8
		C298.45,391.84,300.83,391.85,303.21,391.86z"/>
	<path class="st5" d="M294.45,392.69c-3.56,3.77-7.15,3.3-10.76,0.08c2.61-0.2,5.21-0.4,7.82-0.59
		C292.49,392.35,293.47,392.52,294.45,392.69z"/>
	<path class="st8" d="M257.3,382.01c0.8-0.01,1.61-0.03,2.41-0.04c0.18,1.7,0.37,3.4,0.55,5.1
		C258.21,386.01,256.69,384.63,257.3,382.01z"/>
	<path class="st7" d="M294.45,392.69c-0.98-0.17-1.96-0.34-2.94-0.51c1.52-0.12,3.04-0.23,4.56-0.35c-0.2,0.27-0.4,0.53-0.6,0.8
		C295.13,392.65,294.79,392.67,294.45,392.69z"/>
	<path class="st7" d="M301.1,413.28c0.13-1.81,0.26-3.62,0.39-5.43C301.36,409.66,301.23,411.47,301.1,413.28z"/>
	<path class="st8" d="M272.12,378.67c-0.59-0.93-1.18-1.85-1.76-2.78C271.81,376.27,273.74,376.34,272.12,378.67z"/>
	<path class="st5" d="M235.64,392.97c-7.16,0.99-14.29,2.18-21.48,2.91c-6.65,0.68-13.34,0.87-20.06,1.28
		c-0.25,3.9,4.64,7.9,0.81,12.45c-0.26,0.03-0.5-0.02-0.73-0.14l0.05,0.04c-0.72-4.4-1.44-8.8-2.15-13.2c0.62-3.59,4-1.19,5.63-2.59
		c1.74-0.16,3.48-0.31,5.23-0.47c0.92-0.15,1.84-0.3,2.76-0.45c1.44-0.16,2.89-0.31,4.33-0.47c1.21-0.15,2.43-0.31,3.64-0.46
		c1.15-0.15,2.3-0.3,3.45-0.45C223.29,391.83,229.65,390.16,235.64,392.97z"/>
	<path class="st0" d="M135.53,385.75c-1.71-1.44-3.41-2.88-5.12-4.31c1.12-1.01,2.23-2.02,3.35-3.03c1.22,0.04,2.44,0.08,3.65,0.13
		c1.77,0.01,3.55,0.02,5.32,0.03c4.57,2.59,9.15,5.19,17.06,9.67C149.29,387.16,142.41,386.46,135.53,385.75z"/>
	<path class="st8" d="M187,420.3c-0.57-0.33-1.14-0.65-1.71-0.98c1.25-4.05,2.5-8.11,3.77-12.26c2.14,1.01,3.65,1.73,5.16,2.44
		c0,0-0.05-0.04-0.05-0.04c0.04,0.41,0.08,0.82,0.11,1.23c0,0,0.19-0.19,0.19-0.19c-1.02,2.4-8.15,0.62-4.34,6.41
		c0.63,0.96,0.6,2.36,0.88,3.55C189.69,420.41,188.34,420.35,187,420.3z"/>
	<path class="st3" d="M251.26,383.07c5.38,9.76-2.45,9.92-8.34,11.49c-0.61-1.26-1.23-2.51-1.84-3.77
		c2.58-3.86-0.92-9.88,4.44-12.92c0.51,1.18,0.95,2.17,1.37,3.16C248.35,381.71,249.81,382.39,251.26,383.07z"/>
	<path class="st8" d="M241.08,390.79c0.61,1.26,1.23,2.51,1.84,3.77c0.03,0.39,0.06,0.78,0.09,1.16c-2.31-0.87-4.62-1.73-6.93-2.6
		l-0.17-0.2c0,0-0.26,0.04-0.26,0.04c-5.99-2.81-12.35-1.14-18.53-1.54C224.86,382.27,233.15,393.41,241.08,390.79z"/>
	<path class="st3" d="M250.07,376.07c-0.63,0.8-1.26,1.6-1.9,2.39c0.02-1.07,0.05-2.14,0.07-3.21
		C248.85,375.53,249.46,375.8,250.07,376.07z"/>
	<path class="st8" d="M213.66,391.87c-1.21,0.15-2.43,0.31-3.64,0.46C211.03,390.6,212.28,390.69,213.66,391.87z"/>
	<path class="st8" d="M205.69,392.8c-0.92,0.15-1.84,0.3-2.76,0.45C203.62,391.68,204.55,391.61,205.69,392.8z"/>
	<path class="st3" d="M251.43,375.03c0.15,0.16,0.29,0.32,0.44,0.48c-0.34,0.07-0.68,0.14-1.02,0.21
		C251.04,375.5,251.24,375.26,251.43,375.03z"/>
	<path class="st2" d="M410.05,440.23c-0.63-1.14-1.12-1.68-1.19-2.27c-0.05-0.4,0.51-0.87,0.8-1.3c0.49,0.44,1.25,0.81,1.4,1.34
		C411.18,438.45,410.59,439.09,410.05,440.23z"/>
	<path class="st7" d="M159.9,135.61c-4.82,3.22-0.68,6.84-0.1,10c1.1,6.07-1.54,11.13-5.61,13.8c-3.03,1.98-10.4,0.05-10.47-4.15
		c-0.21-13.06-8.73-24.75-5.49-38.25c1.46-6.08,2.52-12.38,2.7-18.62c0.17-6.28,3.25-8.42,8.76-8.74
		C169.2,102.32,171.45,112.42,159.9,135.61z"/>
	<path class="st5" d="M148.1,86.65c-2.09,0.07-4.19,0.13-6.28,0.2c0.11-0.84,0.17-2.41,0.33-2.42
		C144.42,84.27,146.79,84.13,148.1,86.65z"/>
	<path class="st3" d="M117.1,411.4c0.21-1.59,0.43-3.17,0.64-4.76c-0.08-0.28,0.02-0.48,0.29-0.59c3.09-1.13,3.74-7.01,8.71-4.48
		c2.59,7.73,7.69,2.09,11.56,1.94c3.57-0.13,7.1-1.48,10.91-1.22C138.11,404.05,129.08,412.91,117.1,411.4z"/>
	<path class="st3" d="M137.41,378.54c-1.22-0.04-2.43-0.08-3.65-0.13c0.71-0.73,1.43-1.46,2.14-2.19
		C136.4,376.99,136.91,377.77,137.41,378.54z"/>
	<path class="st3" d="M130.25,397.17c1.26-0.14,2.52-0.28,3.78-0.41c0.08,0.28,0.17,0.56,0.25,0.85c-1.61,0.44-3.23,0.89-4.84,1.33
		C129.7,398.35,129.98,397.76,130.25,397.17z"/>
	<path class="st3" d="M128.55,399.84c-0.6,0.58-1.2,1.16-1.8,1.73C127.35,401,127.95,400.42,128.55,399.84z"/>
	<path class="st3" d="M187,420.3c1.34,0.06,2.68,0.11,4.03,0.17c-0.28-1.2-0.24-2.59-0.88-3.55c-3.82-5.79,3.31-4.01,4.34-6.41
		c0.24,0.58,0.47,1.16,0.71,1.74c0.52,2.17,1.04,4.35,1.56,6.52c0.31,0.42,0.61,0.84,0.92,1.26c0.35-0.38,0.69-0.77,1.04-1.15
		c0.1-0.25,0.04-0.44-0.18-0.58c2.07-0.12,4.14-0.24,6.21-0.36c0.6,0.22,1.2,0.43,1.8,0.65c-0.34,3.19,2.62,5.81,4.08,4.82
		c2.27-1.55,3.58-4.34,7.04-3.46c-1.4,2.01-2.8,4.01-4.19,6.02c-0.59,0.72-1.17,1.45-1.76,2.17c-0.53,0.62-1.07,1.24-1.6,1.85
		c-0.87,0.59-1.74,1.19-2.61,1.78c-0.62-0.03-1.24-0.06-1.87-0.08c3.42-15.35-8.17-7.42-13.54-8.31
		C189.55,422.94,187.14,424.11,187,420.3z"/>
	<path class="st8" d="M205.63,431.67c0.62,0.03,1.24,0.06,1.87,0.08c0.03,0.31,0.06,0.63,0.09,0.94c0,0-0.08,0.07-0.08,0.07
		c-0.72,0.74-1.44,1.49-2.16,2.23c0,0,0.25,0.28,0.25,0.28s-0.23-0.29-0.23-0.29c-3.63,3.68-7.26,7.36-10.89,11.03
		C192.7,436.95,200.39,435.26,205.63,431.67z"/>
	<path class="st8" d="M115.72,423.62c0.03-1.17,0.06-2.34,0.09-3.5c0.94,2.49,1.89,4.97,3.01,7.92c0.85-2.79,1.62-5.29,2.39-7.79
		c0.46,0.1,0.92,0.2,1.38,0.3c-0.44,3.82-0.88,7.65-1.32,11.47c-1.12-0.07-2.24-0.15-3.35-0.22c-0.65-2.09-1.29-4.17-1.94-6.26
		C115.89,424.9,115.8,424.26,115.72,423.62z"/>
	<path class="st5" d="M194.48,446.01c3.63-3.68,7.26-7.36,10.89-11.03c-1.13,7.22-5.62,11.35-12.35,13.41
		C193.51,447.59,194,446.8,194.48,446.01z"/>
	<path class="st5" d="M189.64,451.94c-1.75,4.74-2.83,10.13-9.65,9.95c1.19-1.46,2.38-2.91,3.57-4.37c1.14-1.22,2.29-2.44,3.43-3.66
		C187.87,453.23,188.75,452.58,189.64,451.94z"/>
	<path class="st5" d="M193.06,448.35c0.54,1.87,1.08,3.73,1.85,6.41c-1.84-1.48-3.16-2.55-4.49-3.61
		C191.3,450.21,192.18,449.28,193.06,448.35z"/>
	<path class="st8" d="M186.99,453.87c-1.14,1.22-2.29,2.44-3.43,3.66C183.22,454.92,184.22,453.56,186.99,453.87z"/>
	<path class="st2" d="M117.9,431.8c1.12,0.07,2.24,0.15,3.35,0.22c-0.16,0.24-0.12,0.44,0.11,0.61c-0.1,0.41-0.21,0.82-0.31,1.23
		c-0.39,0.33-0.77,0.65-1.16,0.98C119.23,433.83,118.57,432.81,117.9,431.8z"/>
	<path class="st2" d="M288.82,464.06c-1.13-1.03-2.27-2.06-3.4-3.08c-2.41-5.06-4.49-10.42-10.64-12.24
		c-1.07-2.7-1.37-6.05-5.31-6.34c-0.09-0.21-0.17-0.41-0.26-0.62c-0.17,0.22-0.34,0.43-0.51,0.65c-0.36,0-0.71,0-1.07,0
		c1.05-2.83,0.73-5.15-2.4-6.42c-2.4-2.22-4.8-4.43-7.2-6.65c-0.31-0.39-0.62-0.78-0.94-1.16c-0.07-0.49-0.14-0.98-0.21-1.48
		c-0.03-1.27-0.06-2.54-0.08-3.81c3.21-0.21,5.74-0.74,5.06,4.55c-0.54,4.16,3.7,4.48,7.14,3.95c1.54-0.24,2.7-3.87,4.55-0.79
		c1.65,2.75-1.12,3.7-3.45,5.41c9.52,4.86,11.69,16.21,20.62,21.41C290.15,459.46,289.48,461.76,288.82,464.06z"/>
	<path class="st8" d="M233.81,436.95c1.21-5.24,5.35-7.68,9.61-9.98c2.07,0.48,3.04-0.34,2.9-2.46c0.55-0.8,1.11-1.61,1.66-2.41
		c1.84-3.15,1.4-9.16,7.98-6.35c0.02,0.89,0.04,1.79,0.06,2.68c-0.29-0.04-0.59-0.03-0.88,0.03c-1.89-0.17-3.19,0.47-3.43,2.54
		c-1.07,3.16-5.16,7.46,2.74,7.21c0.89-0.01,1.78-0.02,2.67-0.03c0.31,0.39,0.62,0.78,0.93,1.16c-4.14,0.76-1.1,5.24-3.56,6.87
		c0,0-0.03,0.01-0.03,0.01c-0.3,0.44-0.6,0.88-0.9,1.32c-3.21,2.84-4.92-0.96-7.59-1.82c-0.27,1.47-0.51,2.83-1.3,7.19
		C243.14,431.92,239.39,430.95,233.81,436.95z"/>
	<path class="st5" d="M236.07,393.13c2.31,0.87,4.62,1.73,6.93,2.6c4.76,4.23,10.58,1.7,15.89,2.48c-2.79,9.7-10.26,5.88-15.88,4.72
		C238.81,402.06,235.31,398.58,236.07,393.13z"/>
	<path class="st7" d="M255.95,415.74c-6.58-2.81-6.14,3.2-7.98,6.35c-0.34-2.44-0.69-4.87-1.03-7.31c-0.04-0.55-0.09-1.11-0.13-1.66
		c1.98-0.52,3.97-1.03,5.95-1.55C256.16,411.17,258.45,411.62,255.95,415.74z"/>
	<path class="st8" d="M217.66,419.93c-3.46-0.89-4.77,1.9-7.04,3.46c-1.46,1-4.41-1.62-4.08-4.82c0.91-0.3,1.81-0.6,2.72-0.9
		c1.74-0.19,3.49-0.39,5.23-0.58c0.92-0.08,1.85-0.15,2.77-0.23c0.56-0.04,1.12-0.07,1.68-0.11c0.17,0.58,0.33,1.15,0.5,1.73
		C218.84,418.97,218.25,419.45,217.66,419.93z"/>
	<path class="st5" d="M284.59,415.78c2.81,3.2,8.97-13.7,9.75,1.63c-2.34,0.19-4.68,0.37-7.03,0.56c-0.93-0.21-1.86-0.42-2.79-0.62
		C284.55,416.82,284.57,416.3,284.59,415.78z"/>
	<path class="st0" d="M254.44,428.21c-7.9,0.25-3.8-4.06-2.74-7.21c1.28,0.29,2.56,0.58,3.84,0.87c0.22,0.24,0.48,0.34,0.76,0.31
		c0.17,0.24,0.34,0.48,0.51,0.72c0.03,1.27,0.06,2.54,0.08,3.81C256.08,427.21,255.26,427.71,254.44,428.21z"/>
	<path class="st2" d="M252.76,411.57c-1.98,0.52-3.97,1.03-5.95,1.55c-1.44-0.23-3.76-0.91-2.26-2.37
		C247.06,408.32,250.09,410.31,252.76,411.57z"/>
	<path class="st7" d="M284.53,417.34c0.93,0.21,1.86,0.42,2.79,0.62c0.21,1.98,0.42,3.96,0.63,5.94
		C285.67,422.31,283.57,420.62,284.53,417.34z"/>
	<path class="st5" d="M196.76,418.76c-0.52-2.17-1.04-4.35-1.56-6.52c1.11,2.01,2.22,4.03,3.34,6.04c0.23,0.14,0.29,0.34,0.18,0.58
		C198.06,418.83,197.41,418.8,196.76,418.76z"/>
	<path class="st5" d="M209.26,417.67c-0.91,0.3-1.81,0.6-2.72,0.9c-0.6-0.22-1.2-0.43-1.8-0.65
		C206.14,415.98,207.67,416.29,209.26,417.67z"/>
	<path class="st2" d="M289.22,426.33c0.75,0.93,1.5,1.86,2.25,2.8C288.4,428.55,288.37,428.53,289.22,426.33z"/>
	<path class="st7" d="M256.31,422.18c-0.28,0.04-0.53-0.07-0.76-0.31c-0.14-1.14-0.28-2.28-0.42-3.41c0.29-0.06,0.58-0.08,0.88-0.03
		C256.11,419.67,256.21,420.93,256.31,422.18z"/>
	<path class="st5" d="M217.26,416.87c-0.92,0.08-1.85,0.15-2.77,0.23C215.28,415.44,216.21,415.5,217.26,416.87z"/>
	<path class="st5" d="M219.43,418.49c-0.17-0.58-0.33-1.15-0.5-1.73c2.41-1.47,1.55,0.8,1.9,1.67
		C220.37,418.45,219.9,418.47,219.43,418.49z"/>
	<path class="st5" d="M260.07,399.9c0.22-0.19,0.41-0.35,0.59-0.51c0.14,0.2,0.3,0.39,0.4,0.61c0.02,0.05-0.21,0.31-0.25,0.29
		C260.57,400.21,260.36,400.07,260.07,399.9z"/>
	<path class="st5" d="M197.5,412.76c0.03-0.09,0.06-0.18,0.09-0.27c0.1,0.04,0.22,0.05,0.29,0.12c0.03,0.03-0.05,0.17-0.08,0.26
		C197.7,412.83,197.6,412.8,197.5,412.76z"/>
	<path class="st3" d="M194.3,410.7c-0.04-0.41-0.08-0.82-0.11-1.23c0.23,0.13,0.47,0.17,0.73,0.14
		C194.71,409.97,194.5,410.33,194.3,410.7z"/>
	<path class="st3" d="M269.47,442.39c3.94,0.3,4.24,3.64,5.3,6.34c-0.08,0.27-0.09,0.54-0.01,0.81c0.8,0.92,1.6,1.83,2.41,2.75
		c0.02,0.8,0.03,1.6,0.05,2.4c-1.12,0.63-2.24,1.26-3.36,1.89c-5.36-6.27-16.09-8.49-14.89-19.72c1.11,1.31,2.23,2.62,3.34,3.93
		c1.09,2.77,3.5,1.26,5.32,1.63c0.36,0,0.71,0,1.07,0c0,0,0.38,0.04,0.38,0.04L269.47,442.39z"/>
	<path class="st7" d="M262.32,440.78c-1.11-1.31-2.23-2.62-3.34-3.93c-0.23-0.27-0.45-0.54-0.68-0.8c0.73-0.51,1.45-1.03,2.47-1.75
		c-2.78-1.25-3.53,0.52-4.47,1.92c-0.61,0-1.21,0-1.82,0c2.46-1.63-0.58-6.11,3.56-6.87c2.4,2.22,4.8,4.43,7.2,6.65
		C264.27,437.59,263.29,439.19,262.32,440.78z"/>
	<path class="st5" d="M225.16,448.53c1.37-3.6,1.72-7.95,6.59-8.97c0.03,0.48,0.06,0.96,0.09,1.44c-1.63,3.41-3.26,6.82-4.89,10.23
		l0.06,0.07C226.39,450.37,225.78,449.45,225.16,448.53z"/>
	<path class="st3" d="M256.3,436.22c0.94-1.4,1.68-3.17,4.47-1.92c-1.02,0.72-1.75,1.24-2.47,1.75
		C257.63,436.1,256.97,436.16,256.3,436.22z"/>
	<path class="st8" d="M236.65,438.4c0.16,0.18,0.32,0.34,0.43,0.53c0.03,0.05-0.16,0.3-0.2,0.29c-0.22-0.06-0.43-0.17-0.64-0.26
		C236.37,438.77,236.5,438.59,236.65,438.4z"/>
	<path class="st8" d="M232.4,439.79c0.38-0.81,0.77-1.63,1.15-2.44C233.17,438.16,232.78,438.97,232.4,439.79z"/>
	<path class="st7" d="M253.56,437.55c0.3-0.44,0.6-0.88,0.9-1.32C254.16,436.67,253.86,437.11,253.56,437.55z"/>
	<path class="st5" d="M205.77,469.2c0.59-9.73,10.46-10.51,15.44-16c-2.71,3.3-5.42,6.61-8.12,9.91
		C210.65,465.14,208.21,467.17,205.77,469.2z"/>
	<path class="st5" d="M226.95,451.22c-0.05,0.1-0.08,0.22-0.15,0.3c-0.04,0.04-0.15,0.01-0.23,0.02c0.15-0.08,0.29-0.17,0.44-0.25
		C227.01,451.29,226.95,451.22,226.95,451.22z"/>
	<path class="st2" d="M115.72,423.62c0.08,0.64,0.17,1.28,0.25,1.92C114.42,425.09,114.17,424.47,115.72,423.62z"/>
	<path class="st7" d="M277.22,454.68c-0.02-0.8-0.03-1.6-0.05-2.4c-0.8-0.92-1.6-1.83-2.41-2.75c-0.08-0.27-0.07-0.54,0.01-0.81
		c6.15,1.82,8.22,7.18,10.64,12.24C277.59,465.52,278.54,458.62,277.22,454.68z"/>
	<path class="st5" d="M207.59,432.69c-0.03-0.31-0.06-0.63-0.09-0.94c0.87-0.59,1.74-1.19,2.61-1.78
		C209.27,430.88,208.43,431.78,207.59,432.69z"/>
	<path class="st7" d="M246.32,424.5c0.14,2.13-0.83,2.94-2.9,2.46C244.39,426.15,245.35,425.32,246.32,424.5z"/>
	<path class="st5" d="M205.36,434.99c0.72-0.74,1.44-1.49,2.16-2.23C206.8,433.5,206.08,434.25,205.36,434.99z"/>
	<path class="st5" d="M211.71,428.12c0.59-0.72,1.17-1.45,1.76-2.17C212.88,426.67,212.3,427.4,211.71,428.12z"/>
	<path class="st5" d="M221.05,444.23c0.23-0.19,0.42-0.35,0.61-0.51c0.14,0.21,0.31,0.4,0.4,0.62c0.02,0.06-0.21,0.31-0.26,0.3
		C221.57,444.55,221.36,444.4,221.05,444.23z"/>
	<path class="st4" d="M241.16,422.85c0.1,0.07,0.2,0.13,0.31,0.2c-0.12-0.05-0.23-0.11-0.35-0.16
		C241.12,422.9,241.16,422.85,241.16,422.85z"/>
	<path class="st5" d="M230.55,252.65c5.96,1.28,11.71,1.19,16.85-2.68c0,0,0.42,0.07,0.42,0.07l0.42-0.05
		c0.08,0.58,0.16,1.16,0.24,1.74c0.17,0.91,0.35,1.82,0.52,2.72c0.16,0.63,0.33,1.25,0.49,1.88c1.38,4.11,2.76,8.22,4.15,12.33
		c-0.77,3.41-3.08,0.38-4.5,1.08c-7.75-3.32-13.35-9.2-18.49-15.61C230.62,253.64,230.58,253.15,230.55,252.65z"/>
	<path class="st0" d="M249.49,256.34c-0.16-0.63-0.33-1.25-0.49-1.88c0.3-0.52,0.61-1.04,0.91-1.56c2.82-2.9,6.45-1.89,9.84-2.02
		c2.18,2.81,4.36,5.62,7.45,9.6c-6.39-1.16-11.5-0.4-15.42-4.29c-0.29-0.01-0.57-0.01-0.86-0.02
		C250.44,256.23,249.96,256.29,249.49,256.34z"/>
	<path class="st0" d="M194.93,300.74c-2.18-1.5-4.37-2.99-6.55-4.49C191.17,296.86,196.27,294.1,194.93,300.74z"/>
	<path class="st8" d="M249.13,269.74c1.42-0.69,3.73,2.33,4.5-1.08c1.93,0.43,2.14,1.79,0.77,2.7
		C252.29,272.78,250.3,272.2,249.13,269.74z"/>
	<path class="st8" d="M195,303.1c0.2-0.6,0.39-1.2,0.59-1.8c0.42-0.03,0.84-0.06,1.25-0.09c-0.02,0.73-0.04,1.47-0.06,2.2
		C196.19,303.3,195.6,303.2,195,303.1z"/>
	<path class="st1" d="M250.92,256.18c0.29,0.01,0.57,0.01,0.86,0.02c0,0-0.43,0-0.43,0L250.92,256.18z"/>
	<path class="st8" d="M217.09,201.18c0.61-0.88,1.22-1.77,1.83-2.65C218.31,199.41,217.7,200.3,217.09,201.18z"/>
	<path class="st8" d="M215.21,203.76c0.51-0.72,1.01-1.44,1.52-2.16C216.22,202.32,215.71,203.04,215.21,203.76z"/>
	<path class="st8" d="M248.24,250l-0.42,0.05c0,0-0.42-0.07-0.42-0.07c0.09-0.91,0.19-1.81,0.28-2.72
		C249.18,247.9,249.48,248.8,248.24,250z"/>
	<path class="st8" d="M249.91,252.9c-0.3,0.52-0.61,1.04-0.91,1.56c-0.17-0.91-0.35-1.82-0.52-2.72
		C248.95,252.13,249.43,252.51,249.91,252.9z"/>
	<path class="st8" d="M196.76,418.76c0.65,0.03,1.31,0.07,1.96,0.1c-0.35,0.38-0.69,0.77-1.04,1.15
		C197.37,419.6,197.06,419.18,196.76,418.76z"/>
	<path class="st8" d="M262.32,440.78c0.97-1.6,1.95-3.19,2.92-4.79c3.13,1.27,3.46,3.59,2.4,6.42
		C265.82,442.05,263.41,443.55,262.32,440.78z"/>
	<path class="st3" d="M254.44,428.21c0.82-0.5,1.64-1,2.45-1.5c0.07,0.5,0.13,0.99,0.21,1.48
		C256.22,428.19,255.33,428.2,254.44,428.21z"/>
	<path class="st8" d="M269.47,442.39l-0.38,0.07c0,0-0.38-0.04-0.38-0.04c0.17-0.22,0.34-0.43,0.51-0.65
		C269.3,441.97,269.39,442.18,269.47,442.39z"/>
	<path class="st3" d="M255.13,418.46c0.14,1.14,0.28,2.28,0.42,3.41c-1.28-0.29-2.56-0.58-3.84-0.87
		C251.94,418.93,253.24,418.29,255.13,418.46z"/>
	<path class="st8" d="M274.77,449.54c0.8,0.92,1.6,1.83,2.41,2.75C276.37,451.37,275.57,450.45,274.77,449.54z"/>
</g>
</svg>
